<?xml version="1.0" encoding="UTF-8" standalone="no"?>
<svg
   width="1024"
   height="1024"
   version="1.1"
   id="svg168"
   sodipodi:docname="2.svg"
   inkscape:version="1.4 (86a8ad7, 2024-10-11)"
   xmlns:inkscape="http://www.inkscape.org/namespaces/inkscape"
   xmlns:sodipodi="http://sodipodi.sourceforge.net/DTD/sodipodi-0.dtd"
   xmlns="http://www.w3.org/2000/svg"
   xmlns:svg="http://www.w3.org/2000/svg">
  <defs
     id="defs168" />
  <sodipodi:namedview
     id="namedview168"
     pagecolor="#ffffff"
     bordercolor="#000000"
     borderopacity="0.25"
     inkscape:showpageshadow="2"
     inkscape:pageopacity="0.0"
     inkscape:pagecheckerboard="0"
     inkscape:deskcolor="#d1d1d1"
     inkscape:zoom="0.38186528"
     inkscape:cx="449.11126"
     inkscape:cy="436.01764"
     inkscape:window-width="1366"
     inkscape:window-height="745"
     inkscape:window-x="-8"
     inkscape:window-y="-8"
     inkscape:window-maximized="1"
     inkscape:current-layer="svg168" />
  <path
     fill="#ffffff"
     d="m 882.06852,141.23358 1.112,0.619 c 0.157,0.618 0.205,0.633 0.145,1.378 -0.276,3.373 -6.971,12.789 -9.582,14.875 -0.125,-0.115 -0.254,-0.226 -0.375,-0.346 -0.945,-0.935 -1.496,-1.677 -1.458,-3.035 0.132,-4.708 6.864,-10.519 10.158,-13.491 z"
     id="path82" />
  <path
     d="m 245.63552,687.91358 c -1.365,-3.333 -3.642,-6.38 -5.589,-9.402 -4.635,-7.192 -9.862,-14.397 -13.699,-22.039 -5.759,-11.47 -11.754,-23.038 -16.831,-34.824 -15.902,-36.916 -24.758,-75.608 -28.076,-115.607 -7.642,-92.122 25.189,-189.241 84.739,-259.554 q 4.117,-4.932 8.411,-9.71 4.294,-4.779 8.76,-9.398 4.465,-4.619 9.095,-9.072 4.631,-4.453 9.421,-8.735 4.789,-4.282 9.731,-8.386 4.943,-4.105 10.031,-8.027 5.089,-3.922 10.317,-7.656 5.227,-3.734 10.588,-7.275 5.36,-3.541 10.846,-6.885 5.486,-3.343 11.09,-6.485 5.604,-3.141 11.318,-6.077 5.715,-2.935 11.532,-5.661 5.818,-2.725 11.731,-5.237 5.913,-2.512 11.914,-4.807 6,-2.295 12.081,-4.37 6.08,-2.074 12.232,-3.926 6.151,-1.852 12.366,-3.479 6.215,-1.627 12.486,-3.027 6.27,-1.399 12.587,-2.569 6.317,-1.17 12.672,-2.11 6.355,-0.939 12.741,-1.647 6.385,-0.707 12.792,-1.181 6.407,-0.475 12.827,-0.716 6.42,-0.24 12.844,-0.247 6.425,-0.007 12.845,0.22 6.421,0.227 12.829,0.688 6.407,0.46 12.794,1.154 6.387,0.694 12.745,1.62 6.357,0.926 12.677,2.082 6.319,1.157 12.592,2.543 6.273,1.386 12.492,3 6.218,1.613 12.374,3.452 c 20.751,6.228 40.258,14.445 59.557,24.262 3.162,1.608 8.158,5.022 11.626,4.736 0.311,1.555 0.888,1.674 2.213,2.542 2.013,1.319 4.583,3.206 6.991,3.514 q 8.304,5.274 16.343,10.945 8.038,5.67 15.792,11.725 7.753,6.054 15.204,12.477 7.451,6.424 14.581,13.201 c 2.447,2.723 5.329,6.669 8.401,8.59 32.515,31.492 64.621,82.05 79.777,124.683 5.141,14.461 8.164,29.073 11.518,43.992 5.061,22.515 8.8,44.541 9.17,67.695 0.378,23.69 0.178,48.251 -3.029,71.734 q -0.511,3.494 -1.089,6.978 -0.579,3.483 -1.226,6.955 -0.647,3.471 -1.362,6.93 -0.715,3.458 -1.498,6.901 -0.782,3.444 -1.632,6.871 -0.85,3.428 -1.767,6.838 -0.916,3.41 -1.9,6.802 -0.983,3.391 -2.033,6.763 -1.05,3.372 -2.165,6.722 -1.116,3.351 -2.297,6.679 -1.181,3.328 -2.427,6.632 -1.246,3.304 -2.556,6.583 -1.311,3.279 -2.685,6.532 -1.375,3.253 -2.813,6.478 -1.438,3.226 -2.938,6.422 -1.501,3.197 -3.064,6.363 -1.564,3.166 -3.189,6.302 -1.625,3.135 -3.31,6.238 -1.687,3.103 -3.433,6.172 -1.747,3.069 -3.553,6.103 -1.806,3.035 -3.672,6.033 -1.865,2.998 -3.789,5.96 -1.924,2.961 -3.905,5.884 -1.981,2.923 -4.02,5.807 -2.038,2.883 -4.133,5.726 -2.094,2.844 -4.244,5.645 -2.149,2.802 -4.354,5.561 -2.204,2.759 -4.462,5.474 -2.257,2.715 -4.568,5.385 -2.311,2.671 -4.673,5.296 -2.363,2.624 -4.776,5.202 -2.414,2.578 -4.877,5.108 -2.172,2.202 -4.384,4.366 -2.211,2.163 -4.461,4.286 -2.249,2.124 -4.537,4.207 -2.287,2.083 -4.611,4.125 -2.324,2.042 -4.684,4.042 -2.36,2 -4.755,3.957 -2.396,1.958 -4.826,3.873 -2.43,1.914 -4.893,3.785 -2.464,1.871 -4.961,3.697 -2.496,1.827 -5.025,3.609 -2.529,1.782 -5.09,3.518 -2.56,1.736 -5.151,3.427 -2.591,1.69 -5.211,3.334 -2.621,1.644 -5.271,3.241 -2.649,1.596 -5.327,3.146 -2.678,1.549 -5.382,3.05 -2.705,1.501 -5.436,2.954 -2.732,1.453 -5.488,2.857 -2.757,1.403 -5.538,2.758 -2.782,1.354 -5.587,2.659 -2.805,1.304 -5.633,2.558 -2.828,1.255 -5.678,2.458 -2.849,1.204 -5.72,2.356 -2.871,1.153 -5.762,2.254 -2.891,1.101 -5.801,2.15 -2.91,1.049 -5.839,2.047 -2.928,0.997 -5.874,1.941 -2.946,0.945 -5.908,1.837 -2.962,0.892 -5.94,1.731 -2.977,0.84 -5.969,1.625 -2.992,0.786 -5.998,1.518 -3.006,0.733 -6.024,1.411 c -26.687,5.797 -54.104,8.05 -81.372,8.443 -10.339,0.149 -20.646,-0.862 -30.932,-1.776 q -3.718,-0.331 -7.429,-0.741 -3.711,-0.41 -7.412,-0.898 -3.701,-0.488 -7.391,-1.054 -3.69,-0.566 -7.367,-1.21 -3.678,-0.644 -7.34,-1.366 -3.663,-0.721 -7.31,-1.52 -3.647,-0.799 -7.276,-1.674 -3.629,-0.876 -7.239,-1.828 -3.609,-0.952 -7.198,-1.98 -3.589,-1.028 -7.155,-2.132 -3.567,-1.104 -7.109,-2.282 -3.542,-1.179 -7.059,-2.433 -3.516,-1.253 -7.005,-2.58 -3.49,-1.327 -6.95,-2.728 -3.461,-1.401 -6.891,-2.875 -3.43,-1.473 -6.828,-3.019 -3.398,-1.545 -6.763,-3.162 -3.365,-1.617 -6.695,-3.305 -3.329,-1.688 -6.623,-3.446 -3.293,-1.758 -6.549,-3.585 -3.256,-1.826 -6.472,-3.722 -3.216,-1.895 -6.392,-3.858 -3.175,-1.963 -6.309,-3.992 -3.133,-2.03 -6.223,-4.125 -3.09,-2.095 -6.135,-4.255 -3.044,-2.16 -6.043,-4.384 -2.998,-2.224 -5.949,-4.51 -2.951,-2.287 -5.853,-4.636 -2.902,-2.348 -5.754,-4.757 -2.852,-2.41 -5.652,-4.879 -2.8,-2.469 -5.547,-4.996 -2.748,-2.528 -5.441,-5.113 c -8.301,-8.11 -16.515,-16.242 -24.094,-25.043 -5.481,-6.364 -10.714,-14.241 -16.916,-19.824 -1.641,-1.748 -3.094,-3.754 -4.602,-5.623 z"
     id="path105" />
  <path
     fill="#ffffff"
     d="m 783.51152,306.68558 c 3.303,1.858 6.202,7.238 8.457,10.306 -1.901,-0.358 -4.744,-0.556 -6.179,-1.915 -1.969,-1.864 -1.973,-5.816 -2.278,-8.391 z"
     id="path106" />
  <path
     fill="#ffffff"
     d="m 705.22752,718.44158 c 2.643,-0.076 5.109,-0.009 7.668,0.784 1.268,0.392 1.688,0.66 2.262,1.837 -1.038,3.208 -11.164,8.887 -14.338,11.191 -1.481,1.065 -3.352,2.506 -5.22,2.609 -0.86,0.047 -0.993,-0.297 -1.606,-0.798 -0.672,-1.99 -0.143,-3.747 0.633,-5.632 2.103,-5.112 5.697,-7.871 10.601,-9.991 z"
     id="path107" />
  <path
     fill="#ffffff"
     d="m 330.27352,700.41158 c 2.927,1.45 7.229,1.194 10.516,1.484 8.172,0.721 16.393,4.265 22.981,9.088 9.499,6.954 15.309,15.644 17.155,27.27 -5.567,-0.876 -46.243,-31.823 -50.652,-37.842 z"
     id="path108" />
  <path
     fill="#ffffff"
     d="m 513.07552,176.24558 c 5.236,-0.59 10.517,-0.468 15.775,-0.411 l -0.191,0.328 c -2.75,4.825 -6.384,9.07 -11.083,12.105 -8.064,5.209 -17.354,5.42 -26.425,3.324 -6.559,-2.309 -11.55,-6.094 -16.933,-10.355 12.918,-2.402 25.778,-3.843 38.857,-4.991 z"
     id="path109" />
  <path
     fill="#ffffff"
     d="m 818.79952,402.53058 c 2.696,-0.272 5.489,-0.577 7.759,1.23 4.464,3.553 5.435,19.115 6.246,25.014 -4.432,2.386 -8.107,3.526 -13.096,4.227 -1.567,-0.36 -3.176,-0.826 -4.661,-1.445 -3.816,-1.591 -7.201,-4.98 -8.58,-8.9 -1.303,-3.703 -0.835,-7.682 0.926,-11.154 2.476,-4.882 6.435,-7.264 11.406,-8.972 z"
     id="path110" />
  <path
     fill="#ffffff"
     d="m 567.27552,762.54758 c 0.941,-0.068 1.9,-0.037 2.843,-0.03 11.081,0.085 19.182,4.821 26.752,12.543 -8.089,1.882 -16.057,3.355 -24.318,4.235 -5.16,0.657 -24.624,2.619 -28.527,1.455 0.255,-1.746 1.279,-3.428 2.227,-4.907 5.03,-7.85 12.132,-11.386 21.023,-13.296 z"
     id="path111" />
  <path
     fill="#ffffff"
     d="m 789.96852,541.56058 c 2.956,-0.218 6.334,0.645 8.971,1.982 3.819,1.937 6.538,5.635 7.652,9.726 q 0.212,0.791 0.347,1.598 0.134,0.808 0.189,1.625 0.055,0.816 0.031,1.635 -0.025,0.818 -0.129,1.63 -0.105,0.812 -0.287,1.61 -0.183,0.798 -0.443,1.574 -0.259,0.777 -0.593,1.524 -0.334,0.748 -0.739,1.459 c -2.616,4.503 -6.062,5.904 -10.819,7.173 -3.245,0.534 -6.817,-0.174 -9.705,-1.728 -3.904,-2.099 -6.407,-5.787 -7.476,-10.033 -1.116,-4.435 -0.881,-9.43 1.71,-13.323 2.804,-4.216 6.616,-5.461 11.291,-6.452 z"
     id="path112" />
  <path
     fill="#ffffff"
     d="m 449.84052,755.13958 c 8.052,-1.258 16.904,0.764 24.299,3.903 9.417,3.996 15.899,10.149 19.716,19.692 q -7.988,-1.178 -15.896,-2.805 c -16.665,-3.353 -32.382,-7.96 -48.431,-13.519 6.334,-4.454 12.694,-6.378 20.312,-7.271 z"
     id="path113" />
  <path
     fill="#ffffff"
     d="m 575.90452,177.02858 c 23.058,1.532 46.914,8.396 68.478,16.515 -1.835,1.225 -3.787,2.286 -5.699,3.387 q -2.76,1.354 -5.622,2.474 c -11.603,4.416 -26.123,3.263 -37.282,-1.875 -9.107,-4.193 -16.341,-11.03 -19.875,-20.501 z"
     id="path114" />
  <path
     fill="#ffffff"
     d="m 730.73352,502.10158 c 5.283,-0.511 10.941,0.118 15.786,2.332 q 0.555,0.254 1.097,0.536 0.542,0.281 1.069,0.588 0.527,0.308 1.039,0.641 0.512,0.333 1.006,0.691 0.495,0.358 0.971,0.74 0.477,0.382 0.934,0.786 0.457,0.405 0.893,0.832 0.437,0.427 0.852,0.874 0.415,0.448 0.808,0.916 0.392,0.467 0.761,0.953 0.369,0.487 0.714,0.99 0.345,0.504 0.665,1.024 0.319,0.521 0.613,1.056 0.293,0.535 0.56,1.084 0.267,0.549 0.507,1.111 0.239,0.561 0.451,1.134 0.234,0.64 0.435,1.292 0.202,0.652 0.369,1.313 0.167,0.661 0.3,1.33 0.133,0.669 0.231,1.344 0.098,0.675 0.161,1.354 0.063,0.679 0.092,1.36 0.028,0.681 0.021,1.363 -0.007,0.682 -0.049,1.363 -0.043,0.68 -0.12,1.358 -0.077,0.678 -0.189,1.35 -0.112,0.673 -0.259,1.339 -0.146,0.666 -0.327,1.323 -0.181,0.658 -0.395,1.305 -0.214,0.648 -0.462,1.283 -0.247,0.636 -0.527,1.258 -0.28,0.622 -0.592,1.228 c -3.94,7.82 -10.305,11.554 -18.355,14.043 -6.861,0.715 -13.43,-0.155 -19.273,-4.139 q -0.544,-0.363 -1.069,-0.753 -0.525,-0.39 -1.031,-0.805 -0.505,-0.415 -0.99,-0.854 -0.484,-0.44 -0.947,-0.902 -0.462,-0.463 -0.901,-0.948 -0.439,-0.484 -0.853,-0.99 -0.415,-0.506 -0.804,-1.032 -0.39,-0.525 -0.752,-1.07 -0.363,-0.544 -0.699,-1.105 -0.336,-0.561 -0.643,-1.138 -0.308,-0.577 -0.587,-1.169 -0.279,-0.591 -0.529,-1.196 -0.249,-0.605 -0.469,-1.221 -0.22,-0.616 -0.408,-1.242 -0.189,-0.626 -0.347,-1.261 -0.158,-0.634 -0.285,-1.276 -0.127,-0.668 -0.221,-1.342 -0.093,-0.674 -0.152,-1.352 -0.06,-0.677 -0.085,-1.357 -0.025,-0.68 -0.016,-1.36 0.009,-0.681 0.052,-1.359 0.043,-0.679 0.12,-1.355 0.078,-0.676 0.189,-1.348 0.111,-0.671 0.256,-1.336 0.145,-0.664 0.323,-1.321 0.178,-0.656 0.389,-1.303 0.211,-0.647 0.454,-1.282 0.243,-0.636 0.518,-1.258 0.275,-0.622 0.58,-1.23 0.306,-0.608 0.642,-1.2 0.336,-0.591 0.701,-1.165 0.365,-0.574 0.759,-1.129 c 4.271,-5.906 9.985,-8.669 17.018,-9.696 z"
     id="path115" />
  <path
     d="m 736.11152,507.69558 c 3.936,-0.003 8.849,1.826 11.82,4.356 4.206,3.582 6.814,9.344 7.024,14.84 0.214,5.591 -2.191,11.494 -6.151,15.434 -4.429,4.409 -9.396,5.219 -15.349,5.215 -4.361,-0.475 -8.179,-1.795 -11.573,-4.646 -4.072,-3.422 -6.943,-8.789 -7.326,-14.115 -0.393,-5.464 1.905,-11.19 5.622,-15.158 4.371,-4.667 9.852,-5.683 15.933,-5.926 z"
     id="path116" />
  <path
     fill="#ffffff"
     d="m 398.07752,284.51758 c 6.333,-0.499 12.084,-0.344 17.791,2.908 6.156,3.508 10.443,9.714 12.247,16.497 1.863,7.006 0.864,14.125 -2.825,20.342 -4.038,6.803 -9.783,10.585 -17.288,12.566 -6.313,0.8 -11.775,0.624 -17.552,-2.387 -6.487,-3.382 -11.312,-9.755 -13.286,-16.753 -1.985,-7.04 -0.741,-14.654 2.981,-20.902 4.238,-7.113 10.25,-10.203 17.932,-12.271 z"
     id="path117" />
  <path
     d="m 398.14952,289.45358 c 4.492,-0.206 8.336,-0.214 12.573,1.642 5.181,2.27 9.722,6.51 11.779,11.836 2.041,5.281 1.802,11.614 -0.659,16.719 -2.938,6.096 -8.209,9.846 -14.442,12.001 -4.371,0.903 -9.704,0.4 -13.772,-1.416 q -0.455,-0.208 -0.899,-0.438 -0.444,-0.229 -0.877,-0.48 -0.432,-0.252 -0.852,-0.524 -0.42,-0.272 -0.825,-0.564 -0.406,-0.292 -0.797,-0.604 -0.392,-0.311 -0.767,-0.642 -0.376,-0.33 -0.734,-0.679 -0.359,-0.348 -0.701,-0.713 -0.341,-0.366 -0.664,-0.748 -0.323,-0.381 -0.627,-0.778 -0.304,-0.397 -0.589,-0.809 -0.284,-0.411 -0.548,-0.836 -0.264,-0.425 -0.507,-0.862 -0.242,-0.437 -0.464,-0.886 -0.221,-0.448 -0.42,-0.907 -0.199,-0.459 -0.375,-0.927 -0.193,-0.522 -0.361,-1.053 -0.167,-0.531 -0.308,-1.07 -0.141,-0.538 -0.255,-1.083 -0.114,-0.545 -0.201,-1.095 -0.088,-0.549 -0.148,-1.103 -0.06,-0.553 -0.092,-1.109 -0.033,-0.556 -0.038,-1.112 -0.006,-0.557 0.016,-1.113 0.022,-0.557 0.072,-1.111 0.049,-0.555 0.126,-1.106 0.077,-0.551 0.181,-1.098 0.103,-0.547 0.234,-1.088 0.131,-0.541 0.288,-1.075 0.157,-0.535 0.34,-1.06 0.183,-0.526 0.392,-1.042 0.209,-0.516 0.443,-1.021 c 3.045,-6.469 7.973,-9.745 14.478,-12.046 z"
     id="path118" />
  <path
     fill="#ffffff"
     d="m 732.01852,426.61658 c 5.485,-0.811 12.897,0.975 17.498,3.873 5.761,3.629 9.591,9.921 11.115,16.479 1.62,6.973 0.669,14.698 -3.22,20.777 -4.733,7.401 -11.644,10.948 -20.025,12.9 -1.012,-0.206 -2.031,-0.296 -3.058,-0.396 -5.404,-0.529 -10.308,-2.135 -14.754,-5.332 -6.077,-4.371 -9.771,-11.21 -10.84,-18.542 -1.029,-7.055 1.278,-13.922 5.45,-19.581 4.627,-6.277 10.317,-8.984 17.834,-10.178 z"
     id="path119" />
  <path
     d="m 731.50852,432.51358 c 4.454,-0.381 8.581,-0.31 12.651,1.779 4.974,2.555 8.877,7.516 10.414,12.867 1.571,5.474 0.999,11.852 -1.847,16.819 -2.849,4.971 -7.79,8.295 -13.285,9.662 q -0.869,0.204 -1.754,0.328 -0.884,0.124 -1.776,0.167 -0.893,0.042 -1.785,0.002 -0.892,-0.04 -1.777,-0.161 -0.885,-0.121 -1.755,-0.323 -0.87,-0.203 -1.717,-0.484 -0.848,-0.281 -1.667,-0.638 -0.818,-0.358 -1.6,-0.789 c -5.086,-2.739 -9.233,-7.525 -10.833,-13.112 q -0.136,-0.479 -0.247,-0.964 -0.111,-0.485 -0.197,-0.974 -0.086,-0.49 -0.148,-0.984 -0.061,-0.494 -0.097,-0.99 -0.036,-0.496 -0.047,-0.993 -0.011,-0.498 0.004,-0.995 0.014,-0.497 0.054,-0.993 0.04,-0.496 0.105,-0.989 0.065,-0.494 0.155,-0.983 0.089,-0.489 0.204,-0.973 0.115,-0.484 0.254,-0.962 0.139,-0.478 0.302,-0.948 0.164,-0.469 0.35,-0.931 0.187,-0.461 0.398,-0.912 0.21,-0.45 0.442,-0.89 0.233,-0.44 0.488,-0.867 c 3.388,-5.761 8.416,-9.016 14.711,-10.769 z"
     id="path120" />
  <path
     fill="#ffffff"
     d="m 338.33252,403.24558 c 5.111,-0.093 11.258,2.415 15.273,5.441 5.671,4.275 9.178,10.809 10.124,17.798 q 0.094,0.678 0.153,1.36 0.059,0.682 0.083,1.366 0.023,0.684 0.011,1.368 -0.012,0.685 -0.059,1.368 -0.048,0.683 -0.13,1.362 -0.083,0.679 -0.201,1.354 -0.118,0.674 -0.271,1.341 -0.153,0.667 -0.34,1.326 -0.187,0.658 -0.408,1.306 -0.222,0.648 -0.476,1.283 -0.255,0.636 -0.542,1.257 -0.287,0.622 -0.606,1.227 -0.318,0.606 -0.668,1.194 -0.35,0.589 -0.73,1.158 -0.38,0.569 -0.789,1.118 -0.409,0.549 -0.846,1.076 c -5.492,6.727 -12.264,8.993 -20.582,9.743 -6.533,0.204 -12.329,-1.816 -17.308,-6.097 -5.888,-5.063 -9.613,-12.081 -10.02,-19.915 -0.363,-7.004 2.253,-13.504 7.079,-18.553 5.733,-6 13.04,-8.819 21.253,-8.881 z"
     id="path121" />
  <path
     d="m 332.99852,409.47358 c 4.261,-0.563 8.956,-0.071 12.871,1.724 q 0.466,0.215 0.921,0.451 0.454,0.237 0.897,0.496 0.443,0.259 0.873,0.539 0.429,0.279 0.845,0.58 0.416,0.3 0.816,0.62 0.401,0.32 0.786,0.66 0.384,0.339 0.752,0.696 0.367,0.358 0.717,0.733 0.35,0.375 0.682,0.766 0.331,0.391 0.643,0.798 0.312,0.407 0.604,0.829 0.291,0.422 0.563,0.857 0.271,0.435 0.52,0.883 0.25,0.448 0.477,0.908 0.228,0.459 0.433,0.93 0.205,0.47 0.387,0.949 c 1.786,4.823 1.831,10.554 -0.387,15.247 -2.957,6.258 -8.663,9.677 -14.86,12.061 -4.219,0.728 -8.422,0.558 -12.431,-1.045 -5.371,-2.147 -9.483,-6.699 -11.53,-12.063 -1.968,-5.157 -1.776,-10.609 0.596,-15.6 3.16,-6.652 8.216,-9.579 14.825,-12.019 z"
     id="path122" />
  <path
     fill="#ffffff"
     d="m 795.52752,323.10958 c 5.54,4.906 20.352,39.295 23.681,48.512 -0.769,1.032 -1.578,1.974 -2.472,2.9 -7.654,7.928 -16.079,9.724 -26.75,9.921 -3.571,-1.041 -6.555,-1.586 -9.86,-3.488 -6.838,-3.935 -12.141,-10.522 -14.01,-18.239 q -0.183,-0.774 -0.327,-1.556 -0.144,-0.782 -0.249,-1.57 -0.105,-0.788 -0.17,-1.58 -0.066,-0.792 -0.092,-1.587 -0.026,-0.794 -0.012,-1.589 0.013,-0.795 0.066,-1.589 0.053,-0.793 0.145,-1.582 0.093,-0.79 0.224,-1.574 0.132,-0.784 0.302,-1.561 0.17,-0.776 0.379,-1.543 0.209,-0.768 0.455,-1.523 0.247,-0.756 0.531,-1.499 0.284,-0.742 0.604,-1.47 0.321,-0.728 0.677,-1.438 0.356,-0.711 0.748,-1.403 0.391,-0.692 0.816,-1.364 c 5.977,-9.51 14.84,-12.818 25.314,-15.178 z"
     id="path123" />
  <path
     fill="#ffffff"
     d="m 358.08552,558.19358 c 7.606,0.383 14.139,3.034 19.319,8.783 5.039,5.592 7.372,12.981 6.75,20.456 -0.632,7.618 -4.468,15.13 -10.489,19.88 -4.748,3.746 -10.909,5.969 -16.985,5.278 l -0.655,0.367 c -5.959,-0.638 -11.654,-2.909 -16.176,-6.908 q -0.517,-0.457 -1.011,-0.938 -0.495,-0.481 -0.965,-0.986 -0.471,-0.504 -0.916,-1.031 -0.445,-0.527 -0.865,-1.075 -0.419,-0.548 -0.811,-1.116 -0.392,-0.567 -0.756,-1.153 -0.364,-0.586 -0.7,-1.189 -0.335,-0.603 -0.64,-1.222 -0.306,-0.618 -0.581,-1.251 -0.275,-0.633 -0.52,-1.278 -0.244,-0.645 -0.456,-1.301 -0.213,-0.657 -0.393,-1.323 -0.181,-0.665 -0.329,-1.339 -0.148,-0.674 -0.263,-1.355 -0.115,-0.68 -0.197,-1.365 -0.081,-0.685 -0.13,-1.373 c -0.504,-7.248 1.561,-14.494 6.464,-19.971 5.679,-6.343 13.146,-8.284 21.305,-8.59 z"
     id="path124" />
  <path
     d="m 353.61852,564.04258 c 4.972,-0.371 9.614,0.053 13.983,2.704 4.892,2.967 8.902,8.036 10.243,13.641 1.357,5.667 0.004,11.853 -3.027,16.766 -3.109,5.043 -7.198,7.415 -12.764,8.819 -5.078,0.524 -10.052,0.167 -14.65,-2.263 q -0.476,-0.254 -0.938,-0.531 -0.462,-0.278 -0.91,-0.578 -0.448,-0.301 -0.879,-0.624 -0.432,-0.323 -0.847,-0.668 -0.414,-0.345 -0.811,-0.71 -0.397,-0.366 -0.774,-0.751 -0.377,-0.385 -0.735,-0.789 -0.357,-0.403 -0.693,-0.825 -0.337,-0.421 -0.651,-0.86 -0.315,-0.438 -0.606,-0.891 -0.292,-0.454 -0.56,-0.922 -0.268,-0.467 -0.512,-0.948 -0.244,-0.481 -0.464,-0.974 -0.219,-0.492 -0.413,-0.996 -0.193,-0.503 -0.361,-1.015 -0.168,-0.513 -0.31,-1.033 -0.143,-0.519 -0.26,-1.045 -0.117,-0.525 -0.208,-1.056 -0.09,-0.53 -0.154,-1.065 -0.064,-0.535 -0.101,-1.072 -0.037,-0.537 -0.047,-1.075 -0.01,-0.538 0.007,-1.076 0.017,-0.539 0.061,-1.075 0.044,-0.537 0.115,-1.07 0.07,-0.534 0.168,-1.064 0.097,-0.529 0.221,-1.053 0.124,-0.524 0.274,-1.041 0.15,-0.517 0.325,-1.026 0.176,-0.509 0.377,-1.008 0.201,-0.5 0.426,-0.989 0.226,-0.488 0.476,-0.965 0.25,-0.477 0.523,-0.941 c 3.321,-5.617 8.309,-8.483 14.476,-9.931 z"
     id="path125" />
  <path
     fill="#ffffff"
     d="m 710.76052,343.12558 c 6.061,-0.435 11.8,0.352 17.142,3.504 6.377,3.762 11.005,10.39 12.624,17.594 1.632,7.263 -0.119,14.937 -4.186,21.099 -4.402,6.67 -10.659,10.083 -18.289,11.684 l -2.978,0.169 c -6.175,0.354 -12.662,-1.718 -17.63,-5.423 -5.983,-4.46 -9.82,-10.784 -10.707,-18.237 q -0.076,-0.696 -0.118,-1.395 -0.042,-0.699 -0.051,-1.399 -0.008,-0.7 0.017,-1.4 0.025,-0.7 0.084,-1.397 0.059,-0.698 0.151,-1.392 0.093,-0.694 0.219,-1.383 0.125,-0.689 0.284,-1.371 0.159,-0.682 0.351,-1.355 0.191,-0.674 0.415,-1.337 0.224,-0.664 0.479,-1.316 0.255,-0.652 0.542,-1.291 0.286,-0.638 0.603,-1.263 0.317,-0.624 0.664,-1.233 0.347,-0.608 0.722,-1.199 0.376,-0.591 0.78,-1.163 0.403,-0.572 0.834,-1.124 c 4.602,-5.784 10.862,-8.56 18.048,-9.372 z"
     id="path126" />
  <path
     d="m 708.94952,349.53058 c 4.423,-0.301 8.472,-0.229 12.647,1.49 q 0.501,0.205 0.99,0.436 0.489,0.23 0.966,0.485 0.477,0.255 0.941,0.534 0.463,0.279 0.911,0.581 0.449,0.302 0.882,0.627 0.432,0.325 0.847,0.671 0.416,0.346 0.813,0.713 0.398,0.367 0.776,0.754 0.378,0.387 0.736,0.792 0.357,0.406 0.694,0.829 0.337,0.423 0.652,0.863 0.314,0.44 0.606,0.895 0.292,0.456 0.561,0.925 0.268,0.47 0.512,0.952 0.244,0.483 0.463,0.978 0.219,0.494 0.413,0.999 0.191,0.494 0.357,0.998 0.166,0.503 0.306,1.015 0.141,0.511 0.255,1.029 0.114,0.518 0.201,1.041 0.088,0.522 0.148,1.049 0.061,0.527 0.095,1.056 0.034,0.529 0.041,1.059 0.007,0.53 -0.013,1.06 -0.02,0.53 -0.067,1.058 -0.047,0.528 -0.121,1.053 -0.073,0.525 -0.174,1.046 -0.1,0.52 -0.227,1.035 -0.126,0.515 -0.279,1.023 -0.152,0.508 -0.331,1.007 -0.178,0.499 -0.381,0.989 -0.204,0.489 -0.432,0.968 c -3.012,6.225 -8.122,9.182 -14.408,11.293 -5.155,0.49 -9.996,0.389 -14.717,-2.076 -5.144,-2.686 -8.835,-7.526 -10.509,-13.042 -1.581,-5.212 -0.989,-10.628 1.593,-15.418 3.092,-5.736 8.101,-9.075 14.253,-10.767 z"
     id="path127" />
  <path
     fill="#ffffff"
     d="m 274.79352,573.13558 c 3.143,0.012 6.184,0.077 9.248,0.872 7.724,2.004 14.663,6.946 18.581,13.968 3.91,7.006 4.835,15.825 2.623,23.513 -3.026,10.516 -10.822,17.65 -20.165,22.747 1.998,5.997 3.819,12.321 3.973,18.679 l -0.454,0.683 -0.659,-0.284 c -3.309,-4.121 -5.797,-9.018 -8.475,-13.564 -10.15,-17.227 -20.106,-35.483 -26.38,-54.545 l 0.104,-0.13 c 5.961,-7.256 12.141,-10.943 21.604,-11.939 z"
     id="path128" />
  <path
     fill="#ffffff"
     d="m 665.72852,617.52858 c 5.951,-0.433 11.337,0.183 16.704,2.944 q 0.623,0.324 1.228,0.678 0.606,0.355 1.193,0.74 0.587,0.384 1.154,0.797 0.567,0.414 1.113,0.855 0.546,0.441 1.069,0.909 0.523,0.468 1.021,0.962 0.499,0.493 0.973,1.011 0.473,0.518 0.92,1.059 0.447,0.541 0.867,1.104 0.419,0.563 0.81,1.146 0.39,0.583 0.751,1.184 0.361,0.602 0.692,1.221 0.33,0.62 0.629,1.254 0.299,0.635 0.566,1.284 0.267,0.649 0.501,1.311 0.234,0.662 0.435,1.334 c 2.005,6.701 1.047,13.551 -2.294,19.632 -4.627,8.422 -11.654,12.663 -20.652,15.363 -6.585,0.338 -11.782,0.25 -17.773,-3.02 -6.5,-3.549 -11.239,-9.952 -13.125,-17.075 q -0.178,-0.666 -0.322,-1.339 -0.144,-0.674 -0.255,-1.354 -0.11,-0.68 -0.187,-1.364 -0.076,-0.685 -0.118,-1.373 -0.042,-0.687 -0.05,-1.376 -0.008,-0.689 0.019,-1.378 0.026,-0.688 0.087,-1.374 0.061,-0.686 0.157,-1.369 0.095,-0.682 0.224,-1.359 0.129,-0.676 0.292,-1.346 0.163,-0.669 0.359,-1.33 0.196,-0.66 0.424,-1.31 0.229,-0.65 0.49,-1.287 0.261,-0.638 0.553,-1.262 0.292,-0.624 0.616,-1.232 0.323,-0.608 0.676,-1.2 c 4.632,-7.635 11.802,-11.465 20.253,-13.44 z"
     id="path129" />
  <path
     d="m 665.99652,623.07458 c 5.29,-0.487 10.21,0.294 14.818,3.056 4.947,2.966 8.745,7.765 10.077,13.414 q 0.124,0.528 0.222,1.061 0.098,0.533 0.169,1.07 0.072,0.537 0.116,1.077 0.045,0.54 0.063,1.082 0.017,0.541 0.008,1.083 -0.009,0.542 -0.045,1.083 -0.036,0.541 -0.098,1.079 -0.063,0.538 -0.152,1.073 -0.09,0.534 -0.205,1.064 -0.116,0.529 -0.258,1.052 -0.141,0.523 -0.309,1.039 -0.167,0.515 -0.36,1.021 -0.193,0.507 -0.411,1.003 -0.218,0.496 -0.46,0.981 -0.242,0.485 -0.507,0.957 -0.266,0.473 -0.555,0.931 c -3.796,5.924 -9.405,8.621 -16.034,10.092 -4.751,0.617 -8.803,0.244 -13.122,-2.042 q -0.469,-0.246 -0.925,-0.516 -0.456,-0.269 -0.898,-0.562 -0.441,-0.292 -0.868,-0.607 -0.426,-0.314 -0.835,-0.65 -0.41,-0.336 -0.802,-0.693 -0.392,-0.356 -0.765,-0.732 -0.373,-0.376 -0.727,-0.77 -0.354,-0.395 -0.687,-0.807 -0.333,-0.412 -0.644,-0.84 -0.312,-0.428 -0.601,-0.872 -0.29,-0.444 -0.556,-0.902 -0.266,-0.458 -0.509,-0.928 -0.243,-0.471 -0.461,-0.954 -0.218,-0.483 -0.412,-0.976 -0.193,-0.493 -0.362,-0.995 -0.168,-0.503 -0.31,-1.013 c -1.638,-5.87 -0.972,-12.542 2.158,-17.81 3.553,-5.981 8.766,-8.792 15.247,-10.549 z"
     id="path130" />
  <path
     fill="#ffffff"
     d="m 337.16352,474.24258 c 6.008,0.192 12.326,2.903 16.814,6.823 q 0.514,0.45 1.004,0.925 0.491,0.475 0.956,0.975 0.466,0.499 0.906,1.022 0.44,0.522 0.853,1.066 0.413,0.544 0.798,1.108 0.385,0.564 0.74,1.147 0.356,0.583 0.682,1.183 0.326,0.6 0.622,1.216 0.295,0.615 0.559,1.245 0.263,0.63 0.495,1.273 0.231,0.642 0.43,1.295 0.199,0.654 0.364,1.316 0.166,0.663 0.298,1.333 0.132,0.67 0.229,1.346 0.098,0.676 0.162,1.356 0.063,0.68 0.092,1.362 c 0.375,7.927 -2.506,15.432 -7.928,21.208 -5.838,6.218 -12.583,8.775 -21.015,9.098 q -1.248,-0.027 -2.489,-0.165 -1.241,-0.138 -2.464,-0.386 -1.224,-0.248 -2.421,-0.604 -1.196,-0.356 -2.356,-0.817 -1.16,-0.462 -2.275,-1.024 -1.114,-0.563 -2.174,-1.223 -1.06,-0.66 -2.057,-1.411 -0.997,-0.752 -1.923,-1.589 c -5.795,-5.344 -8.416,-13.134 -8.524,-20.872 q -0.008,-0.724 0.02,-1.447 0.028,-0.723 0.092,-1.444 0.063,-0.721 0.162,-1.438 0.099,-0.717 0.234,-1.429 0.134,-0.711 0.303,-1.415 0.169,-0.703 0.373,-1.398 0.204,-0.694 0.442,-1.378 0.237,-0.684 0.509,-1.355 0.271,-0.671 0.575,-1.328 0.304,-0.657 0.64,-1.298 0.336,-0.641 0.703,-1.265 0.367,-0.623 0.765,-1.228 0.397,-0.605 0.824,-1.19 0.427,-0.584 0.882,-1.147 0.456,-0.563 0.938,-1.102 0.483,-0.54 0.991,-1.055 c 6.053,-6.027 13.032,-7.226 21.169,-7.289 z"
     id="path131" />
  <path
     d="m 331.84752,480.07958 c 0.608,0.249 0.944,0.331 1.61,0.312 4.609,-0.133 9.199,0.625 13.156,3.101 5.014,3.138 8.905,8.014 10.148,13.864 1.3,6.12 -0.354,12.529 -3.906,17.608 -3.541,5.063 -7.869,7.655 -13.882,8.719 -4.649,0.588 -9.401,0.352 -13.689,-1.694 -5.265,-2.512 -9.206,-7.348 -11.015,-12.857 -1.878,-5.718 -1.168,-11.74 1.555,-17.067 3.519,-6.885 8.961,-9.833 16.023,-11.986 z"
     id="path132" />
  <path
     fill="#ffffff"
     d="m 719.63752,653.02958 c 9.002,-0.445 17.95,1.492 25.032,7.373 7.585,6.3 10.197,14.406 11.145,23.936 -7.42,10.058 -20.106,20.424 -29.61,28.616 -1.122,0.928 -2.236,1.889 -3.619,2.402 -3.874,1.436 -9.371,-0.606 -12.716,-2.546 -7.478,-4.337 -13.318,-12.31 -15.495,-20.667 -1.971,-7.562 -0.183,-16.75 3.699,-23.477 4.805,-8.326 12.409,-13.26 21.564,-15.637 z"
     id="path133" />
  <path
     fill="#ffffff"
     d="m 377.53352,221.07858 0.209,0.162 c -0.467,2.785 -1.454,5.19 -2.92,7.589 -5.625,9.201 -13.765,10.099 -23.407,12.352 9.569,2.123 16.951,6.195 22.442,14.554 4.548,6.922 5.946,15.078 4.189,23.14 -1.64,7.522 -6.213,13.834 -12.661,17.961 -7.958,5.093 -16.731,5.738 -25.796,3.805 -12.192,-4.477 -12.185,-9.41 -20.54,-16.518 -2.395,-2.038 -5.138,-3.419 -7.917,-4.845 13.553,-16.312 30.059,-32.247 47.038,-44.993 6.224,-4.672 12.907,-8.858 19.363,-13.207 z"
     id="path134" />
  <path
     fill="#ffffff"
     d="m 250.97052,456.68758 c 22.877,-0.218 40.399,7.785 59.367,19.815 -7.752,6.938 -14.027,16.411 -16.467,26.608 -2.59,10.827 1.883,20.094 7.357,29.111 -14.288,5.711 -29.12,10.964 -44.741,8.711 -5.263,-0.758 -14.893,-2.392 -18.231,-6.829 q -0.609,-8.07 -1.691,-16.09 c 0.925,1.357 1.948,2.666 3.132,3.808 5.046,4.868 11.93,8.144 19.027,7.914 6.828,-0.22 13.83,-4.183 18.346,-9.174 4.547,-5.026 7.272,-11.844 6.826,-18.666 -0.459,-7.01 -4.209,-13.678 -9.506,-18.218 -5.591,-4.792 -13.295,-7.712 -20.703,-7.016 -8.825,0.828 -14.171,6.201 -19.528,12.61 -0.196,-9.61 0.346,-19.065 1.04,-28.646 5.301,-1.915 10.139,-3.471 15.772,-3.938 z"
     id="path135" />
  <path
     fill="#ffffff"
     d="m 269.69952,382.61958 c 7.786,-0.313 14.361,1.579 20.703,6.12 6.968,4.99 11.826,12.239 13.197,20.768 q 0.122,0.747 0.207,1.499 0.085,0.752 0.132,1.507 0.047,0.755 0.057,1.512 0.009,0.757 -0.019,1.513 -0.028,0.756 -0.094,1.51 -0.066,0.754 -0.17,1.504 -0.103,0.75 -0.244,1.493 -0.141,0.744 -0.319,1.479 -0.177,0.736 -0.392,1.462 -0.214,0.726 -0.464,1.44 -0.25,0.714 -0.536,1.415 -0.285,0.701 -0.606,1.386 -0.32,0.686 -0.674,1.355 -0.354,0.669 -0.741,1.319 -0.386,0.651 -0.805,1.281 -0.419,0.63 -0.869,1.239 c -4.969,6.647 -12.721,10.76 -20.871,11.921 -7.641,0.873 -14.846,-0.04 -21.321,-4.535 -6.735,-4.676 -11.98,-12.413 -13.319,-20.562 -1.223,-7.44 1.547,-20.408 6.182,-26.355 5.207,-6.681 12.928,-9.198 20.966,-10.271 z"
     id="path136" />
  <path
     fill="#ffffff"
     d="m 461.96252,184.53858 c 0.603,-0.057 0.935,0.068 1.508,0.239 6.249,5.897 10.456,16.443 11.409,24.873 1.216,10.748 -2.993,21.7 -9.661,29.991 -7.313,9.093 -16.999,15.599 -28.789,16.85 -11.055,1.173 -23.434,-1.527 -32.162,-8.701 -7.524,-6.185 -15.891,-18.034 -16.445,-27.991 -0.118,-2.122 0.034,-3.654 1.468,-5.186 7.451,-4.48 15.139,-8.592 22.745,-12.803 l -0.402,0.376 c -3.61,3.394 -5.66,6.812 -5.679,11.971 q -0.006,0.448 0.011,0.896 0.017,0.448 0.056,0.894 0.039,0.447 0.101,0.89 0.062,0.444 0.146,0.885 0.084,0.44 0.191,0.875 0.106,0.435 0.234,0.865 0.128,0.429 0.278,0.852 0.15,0.422 0.321,0.836 0.171,0.415 0.362,0.82 0.192,0.405 0.403,0.8 0.212,0.395 0.444,0.779 0.231,0.383 0.482,0.755 0.25,0.372 0.519,0.73 0.269,0.358 0.556,0.703 0.286,0.344 0.59,0.674 0.304,0.329 0.624,0.643 c 3.307,3.181 7.945,5.116 12.56,4.862 4.558,-0.25 9.367,-2.834 12.232,-6.37 2.925,-3.61 3.856,-9.137 3.216,-13.665 q -0.104,-0.713 -0.279,-1.413 -0.175,-0.699 -0.42,-1.377 -0.245,-0.678 -0.556,-1.328 -0.312,-0.65 -0.688,-1.265 -0.376,-0.615 -0.811,-1.189 -0.436,-0.575 -0.927,-1.102 -0.492,-0.527 -1.034,-1.003 -0.542,-0.475 -1.129,-0.893 c -4.71,-3.417 -10.389,-3.506 -15.938,-2.587 -0.266,0.044 -0.532,0.094 -0.798,0.141 1.739,-2.74 39.396,-13.646 45.262,-15.327 z"
     id="path137" />
  <path
     fill="#ffffff"
     d="m 491.90052,230.08158 c 6.745,-0.776 14.339,0.833 20.126,4.428 q 0.729,0.462 1.434,0.96 0.705,0.498 1.384,1.03 0.68,0.533 1.332,1.098 0.652,0.566 1.275,1.163 0.623,0.597 1.215,1.225 0.593,0.627 1.154,1.284 0.56,0.656 1.087,1.339 0.527,0.684 1.02,1.392 0.492,0.709 0.949,1.442 0.457,0.732 0.876,1.486 0.42,0.755 0.801,1.529 0.382,0.774 0.724,1.566 0.343,0.792 0.645,1.601 0.303,0.808 0.565,1.63 0.262,0.823 0.482,1.657 0.221,0.835 0.4,1.679 c 1.902,8.632 0.603,17.929 -4.244,25.39 -6.249,9.619 -14.939,14.063 -25.852,16.38 -7.202,0.738 -16.406,-2.357 -22.291,-6.475 -7.071,-4.948 -11.986,-13.122 -13.34,-21.626 -1.477,-9.277 1.379,-19.159 6.964,-26.614 5.652,-7.543 14.034,-12.169 23.294,-13.564 z"
     id="path138" />
  <path
     fill="#ffffff"
     d="m 575.51252,655.18658 c 0.201,-0.034 0.399,-0.085 0.603,-0.101 7.136,-0.554 16.763,4.511 22.066,8.955 6.801,5.701 11.273,14.87 11.981,23.692 0.718,8.946 -2.88,18.325 -8.699,25.047 -5.609,6.48 -14.129,11.24 -22.771,11.8 -9.03,0.115 -17.343,-2.008 -24.403,-7.88 -7.085,-5.893 -11.243,-14.47 -11.976,-23.596 -0.752,-9.357 1.489,-18.736 7.726,-25.924 6.466,-7.451 15.758,-11.353 25.473,-11.993 z"
     id="path139" />
  <path
     fill="#ffffff"
     d="m 504.56452,697.11758 c 9.144,-0.858 17.779,0.846 25.425,6.067 q 0.713,0.493 1.401,1.02 0.688,0.527 1.349,1.087 0.662,0.561 1.295,1.152 0.634,0.592 1.238,1.213 0.603,0.622 1.176,1.273 0.573,0.65 1.114,1.328 0.54,0.677 1.047,1.38 0.507,0.703 0.979,1.43 0.472,0.727 0.908,1.476 0.437,0.749 0.836,1.518 0.399,0.77 0.76,1.558 0.361,0.788 0.684,1.592 0.322,0.805 0.605,1.624 0.283,0.819 0.525,1.651 0.243,0.833 0.445,1.675 0.202,0.843 0.362,1.695 c 1.589,8.796 -0.516,18.51 -5.708,25.795 -5.671,7.957 -13.777,12.063 -23.245,13.687 -9.226,0.86 -17.86,-0.041 -25.584,-5.505 q -0.699,-0.493 -1.372,-1.021 -0.673,-0.527 -1.32,-1.087 -0.646,-0.56 -1.264,-1.151 -0.618,-0.591 -1.206,-1.212 -0.588,-0.622 -1.144,-1.271 -0.556,-0.65 -1.08,-1.326 -0.523,-0.676 -1.013,-1.378 -0.489,-0.701 -0.943,-1.426 -0.454,-0.725 -0.872,-1.471 -0.417,-0.746 -0.797,-1.512 -0.38,-0.767 -0.722,-1.551 -0.342,-0.784 -0.644,-1.583 -0.303,-0.8 -0.565,-1.614 -0.262,-0.814 -0.484,-1.64 -0.222,-0.826 -0.402,-1.662 -0.181,-0.836 -0.32,-1.68 c -1.639,-9.934 1.071,-19.972 7.027,-28.065 5.25,-7.134 12.941,-10.798 21.509,-12.066 z"
     id="path140" />
  <path
     fill="#ffffff"
     d="m 557.67952,189.62858 c 8.061,-0.766 16.548,1.734 23.07,6.495 7.816,5.706 13.441,15.117 14.829,24.687 q 0.121,0.868 0.2,1.742 0.079,0.873 0.115,1.749 0.036,0.876 0.029,1.753 -0.007,0.876 -0.057,1.752 -0.049,0.875 -0.142,1.747 -0.093,0.872 -0.228,1.738 -0.135,0.866 -0.312,1.725 -0.178,0.859 -0.397,1.708 -0.219,0.849 -0.48,1.686 -0.26,0.837 -0.562,1.66 -0.301,0.824 -0.642,1.631 -0.341,0.808 -0.721,1.598 -0.381,0.79 -0.799,1.561 -0.418,0.77 -0.874,1.519 -0.456,0.749 -0.947,1.475 -0.492,0.726 -1.019,1.427 c -6.094,8.004 -14.109,11.785 -23.902,13.135 -9.5,0.306 -17.892,-1.421 -25.601,-7.315 -6.975,-5.332 -11.972,-13.363 -13.135,-22.112 -1.359,-10.226 0.868,-20.165 7.286,-28.332 6.07,-7.724 14.652,-11.91 24.289,-13.029 z"
     id="path141" />
  <path
     fill="#ffffff"
     d="m 796.91052,452.12658 c 0.189,-0.026 0.377,-0.058 0.567,-0.076 9.865,-0.931 18.965,0.886 26.576,7.529 7.006,6.115 11.81,14.46 12.427,23.838 0.691,10.478 -1.339,21.487 -8.422,29.485 -5.828,6.581 -14.123,10.357 -22.874,10.919 -0.746,0.083 -1.488,0.153 -2.235,0.222 -8.292,0.765 -18.379,-2.722 -24.875,-7.843 -7.461,-5.881 -12.729,-14.132 -13.822,-23.67 -1.098,-9.59 2.032,-19.359 8.094,-26.819 5.893,-7.251 15.224,-12.678 24.564,-13.585 z"
     id="path142" />
  <path
     fill="#ffffff"
     d="m 530.28852,442.11258 c 8.781,-1.162 17.669,0.426 25.16,5.204 8.245,5.258 14.504,14.686 16.599,24.2 2.025,9.197 -0.137,19.183 -5.173,27.067 -5.759,9.015 -14.063,14.58 -24.404,16.916 -9.716,1.348 -19.467,-0.206 -27.518,-6.023 -8.377,-6.052 -14.598,-14.956 -16.141,-25.269 q -0.133,-0.918 -0.221,-1.841 -0.088,-0.923 -0.131,-1.849 -0.042,-0.927 -0.039,-1.854 0.002,-0.928 0.05,-1.854 0.048,-0.926 0.142,-1.848 0.093,-0.923 0.231,-1.84 0.138,-0.917 0.321,-1.826 0.183,-0.909 0.41,-1.808 0.228,-0.899 0.499,-1.786 0.27,-0.887 0.584,-1.76 0.314,-0.872 0.671,-1.729 0.356,-0.856 0.754,-1.694 0.397,-0.837 0.836,-1.654 0.438,-0.818 0.915,-1.613 0.478,-0.794 0.994,-1.565 0.516,-0.771 1.069,-1.515 c 6.01,-7.932 14.595,-12.737 24.392,-14.059 z"
     id="path143" />
  <path
     d="m 534.53252,449.73458 c 6.893,0.39 13.717,2.201 19.209,6.57 6.048,4.813 10.115,12.736 10.821,20.413 0.678,7.368 -1.846,15.134 -6.605,20.782 -5.432,6.446 -12.393,9.336 -20.706,10.104 -7.115,-0.028 -13.116,-1.405 -18.888,-5.715 q -0.581,-0.437 -1.139,-0.902 -0.558,-0.465 -1.092,-0.957 -0.534,-0.493 -1.042,-1.012 -0.509,-0.519 -0.99,-1.062 -0.482,-0.544 -0.936,-1.111 -0.454,-0.568 -0.878,-1.157 -0.425,-0.59 -0.82,-1.2 -0.394,-0.609 -0.757,-1.239 -0.364,-0.629 -0.695,-1.275 -0.331,-0.647 -0.63,-1.309 -0.298,-0.662 -0.563,-1.339 -0.264,-0.677 -0.494,-1.366 -0.231,-0.689 -0.426,-1.388 -0.195,-0.7 -0.355,-1.409 -0.16,-0.708 -0.284,-1.424 -0.124,-0.716 -0.212,-1.437 c -0.941,-7.612 0.883,-15.454 5.691,-21.524 5.641,-7.12 13.077,-10.006 21.791,-11.043 z"
     id="path144" />
  <path
     fill="#ffffff"
     d="m 332.92752,623.15258 c 9.403,-0.659 18.256,2.051 25.808,7.651 8.116,6.018 13.996,15.788 15.414,25.811 1.314,9.295 -1.148,20.073 -6.874,27.579 -6.01,7.88 -16.36,12.995 -26.082,14.228 -4.091,0.004 -8.209,0.368 -12.293,0.608 l 0.493,0.075 -0.314,1.139 0.436,-0.878 c -9.575,-6.302 -23.585,-22.342 -29.854,-32.075 -0.699,-11.867 0.571,-21.622 8.436,-31.097 6.519,-7.853 14.744,-12.056 24.83,-13.041 z"
     id="path145" />
  <path
     fill="#ffffff"
     d="m 650.88552,210.20858 c 8.029,-1.282 17.176,1.187 23.857,5.671 8.401,5.639 14.818,14.776 16.72,24.762 q 0.174,0.905 0.302,1.817 0.128,0.912 0.21,1.83 0.082,0.917 0.118,1.838 0.036,0.92 0.026,1.842 -0.01,0.921 -0.066,1.84 -0.056,0.92 -0.159,1.835 -0.102,0.916 -0.25,1.825 -0.148,0.909 -0.342,1.81 -0.193,0.901 -0.432,1.79 -0.238,0.89 -0.521,1.767 -0.283,0.877 -0.609,1.738 -0.327,0.862 -0.696,1.706 -0.369,0.844 -0.78,1.668 -0.411,0.825 -0.863,1.627 -0.452,0.803 -0.943,1.582 -0.492,0.78 -1.022,1.533 c -6.661,9.498 -15.524,13.887 -26.704,15.915 q -0.869,0.095 -1.739,0.175 c -8.938,0.83 -18.938,-3.089 -25.723,-8.862 -7.786,-6.624 -12.318,-15.807 -13.066,-25.958 -0.781,-10.586 2.676,-20.636 9.662,-28.644 6.26,-7.175 13.644,-10.427 23.02,-11.107 z"
     id="path146" />
  <path
     d="m 650.47752,218.59958 c 6.202,-0.789 12.993,0.494 18.43,3.588 6.675,3.799 12.017,11.185 13.908,18.611 1.821,7.155 0.222,15.239 -3.633,21.487 -4.092,6.632 -11.245,11.196 -18.737,12.991 -7.893,1.228 -14.747,0.454 -21.505,-4.151 -6.449,-4.394 -10.494,-11.239 -11.85,-18.854 -1.397,-7.841 0.104,-16.073 4.837,-22.578 4.576,-6.288 10.978,-9.796 18.55,-11.094 z"
     id="path147" />
  <path
     fill="#ffffff"
     d="m 619.42852,278.19158 c 10.219,-0.7 18.56,1.934 26.93,7.86 11.199,7.927 19.984,21.376 22.202,34.958 1.371,8.394 -0.203,18.306 -5.366,25.221 -4.739,6.349 -11.602,9.289 -19.183,10.535 -8.67,0.775 -18.087,-3.028 -25.08,-7.913 -11.91,-8.32 -21.036,-21.17 -23.464,-35.653 -1.367,-8.156 0.157,-17.805 5.212,-24.506 4.467,-5.92 11.514,-9.452 18.749,-10.502 z"
     id="path148" />
  <path
     d="m 622.58652,284.64258 c 6.109,-0.558 14.21,2.921 19.198,6.257 10.026,6.707 18.443,18.173 20.734,30.123 1.358,7.079 0.251,14.719 -3.987,20.676 -3.875,5.446 -9.172,7.971 -15.587,9.011 -1.757,-0.224 -3.539,-0.075 -5.316,-0.33 -6.024,-0.865 -11.661,-4.039 -16.443,-7.67 -9.608,-7.299 -18.009,-19.286 -19.485,-31.488 -0.821,-6.789 0.707,-13.747 5.117,-19.097 4.208,-5.106 9.434,-6.874 15.769,-7.482 z"
     id="path149" />
  <path
     fill="#ffffff"
     d="m 670.89452,519.15158 c 7.617,-1.088 18.395,3.778 24.444,8.156 8.394,6.077 13.117,13.937 14.741,24.158 1.562,9.834 -0.558,19.228 -6.511,27.271 -6.62,8.942 -15.967,14.13 -26.882,15.74 -9.492,0.128 -18.376,-0.994 -26.232,-6.797 q -0.746,-0.561 -1.463,-1.159 -0.717,-0.597 -1.404,-1.229 -0.687,-0.632 -1.342,-1.297 -0.655,-0.664 -1.276,-1.361 -0.622,-0.696 -1.208,-1.422 -0.586,-0.727 -1.136,-1.481 -0.55,-0.754 -1.062,-1.534 -0.512,-0.781 -0.985,-1.585 -0.473,-0.805 -0.906,-1.632 -0.433,-0.826 -0.825,-1.674 -0.391,-0.847 -0.74,-1.712 -0.35,-0.866 -0.656,-1.747 -0.307,-0.882 -0.569,-1.778 -0.263,-0.895 -0.481,-1.803 -0.218,-0.907 -0.391,-1.824 -0.173,-0.917 -0.301,-1.842 c -1.456,-10.165 0.761,-20.547 7.073,-28.734 7.386,-9.581 16.453,-13.15 28.112,-14.714 z"
     id="path150" />
  <path
     d="m 671.07152,528.13658 q 0.678,-0.045 1.358,-0.058 0.68,-0.012 1.359,0.008 0.68,0.021 1.357,0.074 0.678,0.054 1.352,0.14 0.675,0.086 1.344,0.205 0.67,0.118 1.332,0.269 0.663,0.151 1.318,0.334 0.655,0.183 1.3,0.397 0.645,0.215 1.279,0.46 0.634,0.245 1.255,0.521 0.622,0.276 1.229,0.581 0.608,0.306 1.199,0.64 0.592,0.335 1.167,0.697 0.575,0.363 1.132,0.753 0.556,0.39 1.094,0.807 0.537,0.417 1.053,0.859 c 6.25,5.34 9.922,12.676 10.434,20.891 0.471,7.557 -2.267,14.749 -7.272,20.361 q -0.467,0.527 -0.959,1.03 -0.492,0.502 -1.009,0.98 -0.517,0.477 -1.058,0.928 -0.54,0.451 -1.102,0.875 -0.562,0.423 -1.144,0.818 -0.583,0.395 -1.184,0.76 -0.602,0.365 -1.221,0.7 -0.619,0.335 -1.254,0.638 -0.635,0.303 -1.284,0.574 -0.65,0.271 -1.312,0.51 -0.662,0.238 -1.335,0.443 -0.673,0.205 -1.356,0.376 -0.683,0.171 -1.373,0.308 -0.69,0.136 -1.387,0.238 -0.696,0.102 -1.396,0.169 -0.701,0.067 -1.404,0.099 c -7.006,0.244 -13.491,-1.231 -19.247,-5.416 -6.417,-4.666 -10.593,-12.079 -11.63,-19.914 q -0.088,-0.69 -0.142,-1.384 -0.054,-0.693 -0.074,-1.389 -0.021,-0.695 -0.008,-1.391 0.014,-0.695 0.061,-1.389 0.046,-0.695 0.127,-1.386 0.08,-0.691 0.194,-1.377 0.114,-0.686 0.261,-1.366 0.147,-0.68 0.327,-1.352 0.18,-0.672 0.392,-1.335 0.212,-0.663 0.456,-1.314 0.244,-0.652 0.519,-1.291 0.275,-0.639 0.581,-1.264 0.306,-0.624 0.642,-1.234 0.335,-0.609 0.7,-1.201 0.365,-0.593 0.758,-1.167 0.394,-0.574 0.814,-1.128 c 5.572,-7.208 13.096,-9.956 21.757,-11.087 z"
     id="path151" />
  <path
     fill="#ffffff"
     d="m 395.41552,361.11358 c 7.883,-0.606 16.687,1.949 23.333,6.141 q 0.809,0.51 1.592,1.059 0.783,0.55 1.538,1.138 0.754,0.587 1.479,1.212 0.725,0.624 1.417,1.283 0.693,0.66 1.353,1.353 0.659,0.693 1.283,1.418 0.624,0.725 1.211,1.48 0.588,0.754 1.137,1.538 0.549,0.783 1.059,1.592 0.509,0.809 0.978,1.643 0.469,0.834 0.896,1.69 0.427,0.856 0.811,1.731 0.384,0.877 0.724,1.77 0.341,0.894 0.636,1.804 0.295,0.91 0.545,1.833 0.25,0.924 0.454,1.858 c 2.018,9.135 0.006,19.971 -5.085,27.81 -6.734,10.368 -16.492,14.342 -28.117,16.879 -10.249,0.223 -20.133,-2.318 -28.387,-8.579 q -0.671,-0.501 -1.316,-1.034 -0.646,-0.533 -1.263,-1.098 -0.618,-0.565 -1.207,-1.161 -0.589,-0.595 -1.147,-1.219 -0.559,-0.623 -1.085,-1.274 -0.527,-0.651 -1.02,-1.328 -0.493,-0.676 -0.952,-1.377 -0.459,-0.7 -0.882,-1.422 -0.423,-0.722 -0.81,-1.465 -0.387,-0.742 -0.736,-1.503 -0.349,-0.761 -0.66,-1.539 -0.31,-0.777 -0.582,-1.569 -0.271,-0.792 -0.503,-1.597 -0.231,-0.804 -0.422,-1.619 -0.191,-0.816 -0.341,-1.639 -0.15,-0.824 -0.259,-1.654 c -1.381,-10.213 0.926,-21.306 7.252,-29.578 6.595,-8.625 16.52,-13.151 27.076,-14.577 z"
     id="path152" />
  <path
     d="m 395.72652,369.06558 c 6.355,-0.284 13.135,1.555 18.447,5.059 6.51,4.293 11.335,10.787 12.726,18.56 q 0.132,0.745 0.227,1.496 0.095,0.751 0.152,1.505 0.057,0.755 0.077,1.512 0.02,0.756 0.002,1.513 -0.017,0.756 -0.073,1.511 -0.055,0.755 -0.147,1.506 -0.093,0.751 -0.223,1.497 -0.13,0.745 -0.297,1.484 -0.166,0.738 -0.37,1.467 -0.203,0.729 -0.442,1.447 -0.239,0.718 -0.513,1.423 -0.275,0.705 -0.584,1.396 -0.309,0.691 -0.652,1.365 -0.344,0.675 -0.72,1.332 -0.376,0.656 -0.784,1.294 -0.409,0.637 -0.848,1.253 c -5.045,7.04 -12.151,9.962 -20.367,11.26 -6.805,-0.05 -12.709,-0.687 -18.602,-4.446 q -0.606,-0.38 -1.192,-0.789 -0.586,-0.41 -1.151,-0.849 -0.565,-0.438 -1.107,-0.905 -0.542,-0.466 -1.059,-0.96 -0.518,-0.493 -1.011,-1.011 -0.492,-0.519 -0.958,-1.061 -0.465,-0.543 -0.903,-1.108 -0.438,-0.566 -0.847,-1.152 -0.409,-0.587 -0.788,-1.194 -0.379,-0.606 -0.726,-1.231 -0.348,-0.625 -0.664,-1.266 -0.316,-0.642 -0.6,-1.298 -0.283,-0.657 -0.533,-1.326 -0.25,-0.67 -0.466,-1.352 -0.216,-0.682 -0.398,-1.373 -0.181,-0.692 -0.328,-1.392 c -1.604,-7.447 0.08,-16.163 4.334,-22.502 5.09,-7.584 12.71,-10.988 21.388,-12.665 z"
     id="path153" />
  <path
     fill="#ffffff"
     d="m 756.87452,571.16258 c 8.242,-0.966 17.251,2.295 23.804,7.129 q 0.763,0.56 1.498,1.158 0.735,0.597 1.439,1.23 0.704,0.633 1.376,1.3 0.672,0.666 1.311,1.366 0.638,0.699 1.241,1.429 0.604,0.729 1.17,1.488 0.566,0.759 1.095,1.545 0.528,0.786 1.017,1.596 0.488,0.811 0.937,1.645 0.448,0.835 0.854,1.69 0.407,0.855 0.77,1.729 0.364,0.874 0.684,1.765 0.321,0.891 0.596,1.797 0.276,0.906 0.507,1.824 0.231,0.918 0.416,1.847 0.185,0.928 0.324,1.865 c 1.508,10.078 -1.382,19.966 -7.498,28.063 -7.219,9.558 -16.021,13.381 -27.585,14.988 -9.496,-0.037 -18.616,-2.076 -26.15,-8.122 -7.879,-6.324 -13.422,-16.345 -14.371,-26.425 -0.945,-10.042 2.504,-20.439 9.041,-28.093 7.372,-8.631 16.472,-11.947 27.524,-12.814 z"
     id="path154" />
  <path
     fill="#ffffff"
     d="m 634.69852,696.57058 c 4.252,-0.223 8.624,-0.344 12.858,0.144 11.889,1.368 22.595,7.875 29.913,17.291 6.048,7.783 9.323,17.91 8.111,27.743 -14.617,8.053 -28.775,15.032 -44.379,21.069 -8.306,3.945 -17.702,6.06 -26.59,8.299 q -0.74,-0.518 -1.455,-1.069 -0.716,-0.551 -1.405,-1.134 -0.689,-0.584 -1.35,-1.199 -0.661,-0.615 -1.294,-1.259 -0.632,-0.645 -1.234,-1.318 -0.601,-0.674 -1.171,-1.374 -0.57,-0.7 -1.107,-1.426 -0.537,-0.726 -1.04,-1.476 -0.503,-0.75 -0.971,-1.523 -0.467,-0.772 -0.899,-1.565 -0.431,-0.794 -0.826,-1.606 -0.394,-0.812 -0.75,-1.642 -0.357,-0.83 -0.675,-1.675 -0.317,-0.845 -0.595,-1.704 -0.279,-0.859 -0.517,-1.73 -0.238,-0.871 -0.436,-1.752 c -2.388,-10.557 -0.718,-21.813 5.191,-30.927 7.064,-10.897 18.017,-17.536 30.621,-20.167 z"
     id="path155" />
  <path
     fill="#ffffff"
     d="m 689.09952,215.42158 c 12.329,4.863 38.663,25.645 48.407,35.526 0.898,0.911 1.483,1.341 1.505,2.675 -0.853,0.344 -1.311,0.456 -1.928,1.163 1.59,1.185 4.307,0.989 6.292,1.183 7.111,8.082 19.682,20.947 24.523,29.963 1.444,2.691 2.233,5.677 2.512,8.711 0.85,9.265 -2.689,17.732 -8.556,24.741 -7.512,8.977 -15.423,12.034 -26.873,12.982 -4.637,-0.457 -8.918,-0.876 -13.318,-2.538 -8.965,-3.387 -16.346,-10.014 -20.294,-18.78 -4.327,-9.608 -4.21,-20.609 -0.373,-30.359 4.574,-11.62 13.285,-19.116 25.165,-22.788 3.432,-1.06 7.054,-1.334 10.37,-2.751 l 0.19,-0.627 c -2.114,-1.668 -7.826,-1.913 -10.701,-2.898 -19.045,-6.529 -28.413,-18.654 -36.921,-36.203 z"
     id="path156" />
  <path
     fill="#ffffff"
     d="m 311.37952,308.57258 c 9.034,-1.162 19.065,1.287 26.466,6.588 8.662,6.206 14.852,15.745 16.453,26.327 1.533,10.126 -1.199,20.247 -7.303,28.427 -6.819,9.139 -16.255,14.182 -27.413,15.806 -0.549,0.156 -0.678,0.204 -1.294,0.322 -7.408,1.409 -18.059,-2.287 -24.266,-6.327 -8.714,-5.671 -15.33,-14.652 -17.354,-24.919 q -0.185,-0.949 -0.324,-1.906 -0.138,-0.956 -0.23,-1.919 -0.091,-0.962 -0.135,-1.928 -0.044,-0.966 -0.04,-1.932 0.004,-0.967 0.055,-1.932 0.051,-0.966 0.149,-1.928 0.099,-0.961 0.244,-1.917 0.146,-0.956 0.338,-1.903 0.192,-0.947 0.431,-1.884 0.239,-0.937 0.523,-1.861 0.284,-0.924 0.614,-1.833 0.329,-0.909 0.703,-1.8 0.373,-0.892 0.791,-1.764 0.416,-0.872 0.876,-1.723 0.459,-0.851 0.96,-1.678 0.5,-0.827 1.041,-1.628 c 6.749,-9.892 17.3,-14.542 28.715,-16.688 z"
     id="path157" />
  <path
     fill="#ffffff"
     d="m 557.45352,549.16658 c 11.668,-0.603 24.101,2.541 33.607,9.447 q 1.024,0.742 2.01,1.532 0.986,0.791 1.933,1.628 0.947,0.838 1.851,1.721 0.905,0.882 1.766,1.808 0.86,0.926 1.675,1.893 0.815,0.966 1.581,1.971 0.767,1.005 1.483,2.047 0.717,1.041 1.382,2.116 0.665,1.075 1.277,2.181 0.612,1.106 1.17,2.24 0.557,1.135 1.058,2.295 0.502,1.16 0.946,2.344 0.445,1.183 0.831,2.387 0.386,1.203 0.713,2.424 0.327,1.221 0.595,2.457 0.267,1.235 0.474,2.482 c 2.142,13.723 -0.982,26.853 -9.308,37.996 -9.042,12.102 -21.638,18.585 -36.362,20.722 -0.715,0.114 -1.422,0.22 -2.143,0.291 -11.896,1.168 -24.539,-3.196 -33.727,-10.675 -10.557,-8.595 -18.133,-21.492 -19.472,-35.116 -1.346,-13.686 2.417,-27.024 11.191,-37.663 9.099,-11.033 21.267,-17.093 35.469,-18.528 z"
     id="path158" />
  <path
     d="m 556.21552,562.08458 c 9.622,-0.782 18.829,1.024 26.875,6.597 8.495,5.883 14.68,15.154 16.448,25.361 1.794,10.353 -0.583,20.251 -6.679,28.793 -6.127,8.587 -15,13.762 -25.313,15.488 -9.82,0.898 -18.832,-0.357 -27.253,-5.836 -8.427,-5.484 -14.872,-15.683 -16.812,-25.491 -1.905,-9.632 -0.198,-19.868 5.294,-28.062 6.841,-10.205 15.659,-14.574 27.44,-16.85 z"
     id="path159" />
  <path
     fill="#ffffff"
     d="m 505.38252,304.62058 c 12.167,-1.075 25.115,3.029 34.773,10.344 10.845,8.214 18.237,21.233 19.986,34.702 1.742,13.417 -1.371,26.99 -9.705,37.756 -9.055,11.698 -21.272,18.074 -35.753,19.982 -12.042,0.727 -23.431,-1.629 -33.357,-8.753 -10.671,-7.658 -18.73,-19.109 -20.856,-32.187 -2.327,-14.312 -0.266,-29.273 8.423,-41.144 9.3,-12.706 21.297,-18.35 36.489,-20.7 z"
     id="path160" />
  <path
     d="m 507.38752,318.15858 c 8.845,-0.223 16.446,1.44 23.843,6.413 q 0.783,0.524 1.538,1.087 0.756,0.562 1.483,1.162 0.727,0.599 1.423,1.234 0.696,0.634 1.36,1.303 0.664,0.668 1.294,1.369 0.63,0.701 1.224,1.432 0.594,0.731 1.152,1.49 0.557,0.76 1.076,1.546 0.519,0.786 0.998,1.598 0.479,0.811 0.917,1.645 0.439,0.834 0.835,1.688 0.396,0.855 0.75,1.728 0.353,0.873 0.663,1.763 0.31,0.89 0.575,1.794 0.265,0.904 0.485,1.82 0.22,0.916 0.394,1.842 c 1.862,10.032 -0.805,20.898 -6.627,29.207 -6.531,9.319 -15.918,13.734 -26.866,15.648 -10.6,0.519 -19.014,-1.045 -27.563,-7.721 -8.297,-6.479 -13.222,-15.329 -14.392,-25.761 -1.186,-10.565 1.46,-20.705 8.184,-29.004 7.3,-9.01 16.051,-12.183 27.254,-13.283 z"
     id="path161" />
  <path
     fill="#ffffff"
     d="m 426.28552,600.08158 c 5.774,-0.555 11.715,-0.111 17.234,1.723 13.218,4.393 24.297,15.734 30.347,28.049 4.675,9.517 6.613,20.759 3.084,30.992 -2.325,6.744 -7.084,12.312 -13.611,15.303 -9.378,4.297 -19.627,2.318 -28.89,-1.077 8.184,6.643 14.911,13.987 17.753,24.415 2.39,8.766 1.028,18.905 -3.571,26.743 -5.479,9.338 -13.893,14.472 -24.176,17.105 -4.786,0.893 -9.998,0.737 -14.77,-0.234 -9.726,-1.978 -19.018,-8.316 -24.37,-16.683 -4.905,-7.668 -5.857,-17.92 -3.895,-26.695 2.005,-8.964 7.501,-17.178 15.342,-22.051 10.908,-6.779 22.379,-7.026 34.535,-4.126 -13.184,-9.435 -24.5,-21.854 -27.645,-38.265 -1.6,-8.345 -0.825,-16.286 4.083,-23.473 4.783,-7.004 10.3,-10.132 18.55,-11.726 z"
     id="path162" />
  <path
     d="m 414.05652,681.10358 c 6.282,-0.459 11.976,0.478 17.398,3.847 6.045,3.755 10.131,9.897 11.689,16.784 1.568,6.929 0.515,14.889 -3.431,20.87 -4.779,7.243 -11.882,10.198 -20.04,11.762 -6.546,0.352 -11.914,-0.34 -17.528,-4.004 q -0.58,-0.377 -1.14,-0.784 -0.56,-0.406 -1.098,-0.84 -0.539,-0.434 -1.055,-0.895 -0.516,-0.46 -1.008,-0.947 -0.493,-0.486 -0.96,-0.996 -0.467,-0.51 -0.907,-1.044 -0.441,-0.533 -0.854,-1.088 -0.413,-0.554 -0.798,-1.13 -0.385,-0.574 -0.74,-1.168 -0.355,-0.594 -0.68,-1.205 -0.325,-0.61 -0.618,-1.237 -0.294,-0.626 -0.555,-1.267 -0.262,-0.64 -0.49,-1.293 -0.229,-0.653 -0.425,-1.316 -0.196,-0.664 -0.357,-1.337 -0.162,-0.672 -0.29,-1.352 c -1.298,-7.155 0.738,-14.343 4.927,-20.202 4.555,-6.371 11.388,-9.87 18.96,-11.158 z"
     id="path163" />
  <path
     d="m 427.14252,605.06258 c 8.174,-0.465 16.009,1.436 22.899,5.865 10.765,6.918 19.84,18.741 22.479,31.392 1.446,6.933 0.915,15.277 -3.154,21.244 -3.787,5.553 -9.276,7.468 -15.528,8.792 -8.317,-0.77 -13.193,-0.857 -20.619,-5.249 -10.678,-6.316 -20.868,-18.681 -23.934,-30.825 -1.787,-7.075 -1.041,-15.748 2.938,-21.979 3.557,-5.571 8.783,-7.758 14.919,-9.24 z"
     id="path164" />
  <path
     fill="#ffffff"
     d="m 419.03552,457.62658 c 11.809,-1.49 26.065,2.129 35.745,9.022 11.123,7.92 19.532,21.027 21.749,34.512 2.393,14.559 -0.519,27.99 -9.244,39.921 -9.319,12.745 -22.253,19.005 -37.601,21.329 -12.546,0.897 -25.536,-2.284 -35.828,-9.675 -11.444,-8.219 -19.363,-21.478 -21.517,-35.363 -2.252,-14.524 1.488,-27.645 10.225,-39.359 8.765,-11.75 22.201,-18.266 36.471,-20.387 z"
     id="path165" />
  <path
     d="m 423.90652,470.19258 c 8.954,-0.804 19.281,3.795 26.152,9.237 8.565,6.782 13.52,16.404 14.658,27.23 1.091,10.368 -1.894,20.215 -8.473,28.289 -7.665,9.406 -18.048,13.62 -29.924,14.768 -10.076,-0.02 -18.623,-2.447 -26.644,-8.752 -8.244,-6.48 -14.056,-16.605 -15.209,-27.06 -1.152,-10.44 1.643,-21.298 8.317,-29.475 8.378,-10.265 18.429,-13.042 31.123,-14.237 z"
     id="path166" />
  <path
     fill="#ffffff"
     d="m 642.08352,392.60258 q 1.251,-0.101 2.505,-0.145 1.254,-0.043 2.508,-0.03 1.255,0.014 2.508,0.085 1.253,0.071 2.501,0.199 1.248,0.129 2.489,0.314 1.241,0.185 2.472,0.427 1.232,0.241 2.451,0.539 1.219,0.298 2.423,0.651 1.204,0.353 2.39,0.761 1.187,0.408 2.354,0.87 1.166,0.462 2.311,0.976 1.144,0.515 2.264,1.081 1.12,0.567 2.212,1.183 1.093,0.617 2.156,1.284 1.064,0.666 2.095,1.38 1.032,0.714 2.03,1.475 1.08,0.831 2.119,1.714 1.038,0.882 2.032,1.815 0.993,0.933 1.94,1.913 0.947,0.98 1.845,2.006 0.897,1.025 1.743,2.093 0.847,1.069 1.64,2.177 0.792,1.108 1.53,2.254 0.738,1.146 1.418,2.327 0.681,1.181 1.302,2.394 0.622,1.212 1.184,2.454 0.561,1.242 1.062,2.51 0.5,1.267 0.937,2.558 0.437,1.291 0.811,2.601 0.373,1.311 0.682,2.639 0.309,1.327 0.552,2.668 0.244,1.341 0.421,2.692 c 1.742,13.573 -2.766,28.442 -11.16,39.186 -9.47,12.122 -22.728,17.443 -37.627,19.243 -12.307,1.218 -24.166,-1.827 -34.461,-8.685 -12.07,-8.041 -19.848,-20.152 -22.579,-34.329 -2.576,-13.374 0.567,-28.522 8.328,-39.736 9.345,-13.504 22.675,-20.715 38.612,-23.544 z"
     id="path167" />
  <path
     d="m 647.46352,405.67358 c 9.683,0.335 18.954,3.241 26.416,9.523 8.167,6.875 13.831,17.458 14.629,28.145 0.781,10.437 -3.143,20.603 -9.978,28.416 -8.071,9.224 -18.179,13.493 -30.249,14.242 l -0.298,-0.197 c -8.808,0.358 -18.662,-3.221 -25.491,-8.783 -8.837,-7.198 -14.232,-17.079 -15.237,-28.426 -0.897,-10.137 2.484,-21 9.108,-28.765 8.275,-9.702 18.749,-13.272 31.1,-14.155 z"
     id="path168" />
  <path
     fill="#ffffff"
     d="m 1751.4851,141.23358 1.112,0.619 c 0.157,0.618 0.205,0.633 0.145,1.378 -0.276,3.373 -6.971,12.789 -9.582,14.875 -0.125,-0.115 -0.254,-0.226 -0.375,-0.346 -0.945,-0.935 -1.496,-1.677 -1.458,-3.035 0.132,-4.708 6.864,-10.519 10.158,-13.491 z"
     id="path169" />
  <path
     d="m 1115.0521,687.91358 c -1.365,-3.333 -3.642,-6.38 -5.589,-9.402 -4.635,-7.192 -9.862,-14.397 -13.699,-22.039 -5.759,-11.47 -11.754,-23.038 -16.831,-34.824 -15.902,-36.916 -24.758,-75.608 -28.076,-115.607 -7.642,-92.122 25.189,-189.241 84.739,-259.554 q 4.117,-4.932 8.411,-9.71 4.294,-4.779 8.76,-9.398 4.465,-4.619 9.095,-9.072 4.631,-4.453 9.421,-8.735 4.789,-4.282 9.731,-8.386 4.943,-4.105 10.031,-8.027 5.089,-3.922 10.317,-7.656 5.227,-3.734 10.588,-7.275 5.36,-3.541 10.846,-6.885 5.486,-3.343 11.09,-6.485 5.604,-3.141 11.318,-6.077 5.715,-2.935 11.532,-5.661 5.818,-2.725 11.731,-5.237 5.913,-2.512 11.914,-4.807 6,-2.295 12.081,-4.37 6.08,-2.074 12.232,-3.926 6.151,-1.852 12.366,-3.479 6.215,-1.627 12.486,-3.027 6.27,-1.399 12.587,-2.569 6.317,-1.17 12.672,-2.11 6.355,-0.939 12.741,-1.647 6.385,-0.707 12.792,-1.181 6.407,-0.475 12.827,-0.716 6.42,-0.24 12.844,-0.247 6.425,-0.007 12.845,0.22 6.421,0.227 12.829,0.688 6.407,0.46 12.794,1.154 6.387,0.694 12.745,1.62 6.357,0.926 12.677,2.082 6.319,1.157 12.592,2.543 6.273,1.386 12.492,3 6.218,1.613 12.374,3.452 c 20.751,6.228 40.258,14.445 59.557,24.262 3.162,1.608 8.158,5.022 11.626,4.736 0.311,1.555 0.888,1.674 2.213,2.542 2.013,1.319 4.583,3.206 6.991,3.514 q 8.304,5.274 16.343,10.945 8.038,5.67 15.792,11.725 7.753,6.054 15.204,12.477 7.451,6.424 14.581,13.201 c 2.447,2.723 5.329,6.669 8.401,8.59 32.515,31.492 64.621,82.05 79.777,124.683 5.141,14.461 8.164,29.073 11.518,43.992 5.061,22.515 8.8,44.541 9.17,67.695 0.378,23.69 0.178,48.251 -3.029,71.734 q -0.511,3.494 -1.089,6.978 -0.579,3.483 -1.226,6.955 -0.647,3.471 -1.362,6.93 -0.715,3.458 -1.498,6.901 -0.782,3.444 -1.632,6.871 -0.85,3.428 -1.767,6.838 -0.916,3.41 -1.9,6.802 -0.983,3.391 -2.033,6.763 -1.05,3.372 -2.165,6.722 -1.116,3.351 -2.297,6.679 -1.181,3.328 -2.427,6.632 -1.246,3.304 -2.556,6.583 -1.311,3.279 -2.685,6.532 -1.375,3.253 -2.813,6.478 -1.438,3.226 -2.938,6.422 -1.501,3.197 -3.064,6.363 -1.564,3.166 -3.189,6.302 -1.625,3.135 -3.31,6.238 -1.687,3.103 -3.433,6.172 -1.747,3.069 -3.553,6.103 -1.806,3.035 -3.672,6.033 -1.865,2.998 -3.789,5.96 -1.924,2.961 -3.905,5.884 -1.981,2.923 -4.02,5.807 -2.038,2.883 -4.133,5.726 -2.094,2.844 -4.244,5.645 -2.149,2.802 -4.354,5.561 -2.204,2.759 -4.462,5.474 -2.257,2.715 -4.568,5.385 -2.311,2.671 -4.673,5.296 -2.363,2.624 -4.776,5.202 -2.414,2.578 -4.877,5.108 -2.172,2.202 -4.384,4.366 -2.211,2.163 -4.461,4.286 -2.249,2.124 -4.537,4.207 -2.287,2.083 -4.611,4.125 -2.324,2.042 -4.684,4.042 -2.36,2 -4.755,3.957 -2.396,1.958 -4.826,3.873 -2.43,1.914 -4.893,3.785 -2.464,1.871 -4.961,3.697 -2.496,1.827 -5.025,3.609 -2.529,1.782 -5.09,3.518 -2.56,1.736 -5.151,3.427 -2.591,1.69 -5.211,3.334 -2.621,1.644 -5.271,3.241 -2.649,1.596 -5.327,3.146 -2.678,1.549 -5.382,3.05 -2.705,1.501 -5.436,2.954 -2.732,1.453 -5.488,2.857 -2.757,1.403 -5.538,2.758 -2.782,1.354 -5.587,2.659 -2.805,1.304 -5.633,2.558 -2.828,1.255 -5.678,2.458 -2.849,1.204 -5.72,2.356 -2.871,1.153 -5.762,2.254 -2.891,1.101 -5.801,2.15 -2.91,1.049 -5.839,2.047 -2.928,0.997 -5.874,1.941 -2.946,0.945 -5.908,1.837 -2.962,0.892 -5.94,1.731 -2.977,0.84 -5.969,1.625 -2.992,0.786 -5.998,1.518 -3.006,0.733 -6.024,1.411 c -26.687,5.797 -54.104,8.05 -81.372,8.443 -10.339,0.149 -20.646,-0.862 -30.932,-1.776 q -3.718,-0.331 -7.429,-0.741 -3.711,-0.41 -7.412,-0.898 -3.701,-0.488 -7.391,-1.054 -3.69,-0.566 -7.367,-1.21 -3.678,-0.644 -7.34,-1.366 -3.663,-0.721 -7.31,-1.52 -3.647,-0.799 -7.276,-1.674 -3.629,-0.876 -7.239,-1.828 -3.609,-0.952 -7.198,-1.98 -3.589,-1.028 -7.155,-2.132 -3.567,-1.104 -7.109,-2.282 -3.542,-1.179 -7.059,-2.433 -3.516,-1.253 -7.005,-2.58 -3.49,-1.327 -6.95,-2.728 -3.461,-1.401 -6.891,-2.875 -3.43,-1.473 -6.828,-3.019 -3.398,-1.545 -6.763,-3.162 -3.365,-1.617 -6.695,-3.305 -3.329,-1.688 -6.623,-3.446 -3.293,-1.758 -6.549,-3.585 -3.256,-1.826 -6.472,-3.722 -3.216,-1.895 -6.392,-3.858 -3.175,-1.963 -6.309,-3.992 -3.133,-2.03 -6.223,-4.125 -3.09,-2.095 -6.135,-4.255 -3.044,-2.16 -6.043,-4.384 -2.998,-2.224 -5.949,-4.51 -2.951,-2.287 -5.853,-4.636 -2.902,-2.348 -5.754,-4.757 -2.852,-2.41 -5.652,-4.879 -2.8,-2.469 -5.547,-4.996 -2.748,-2.528 -5.441,-5.113 c -8.301,-8.11 -16.515,-16.242 -24.094,-25.043 -5.481,-6.364 -10.714,-14.241 -16.916,-19.824 -1.641,-1.748 -3.094,-3.754 -4.602,-5.623 z"
     id="path170" />
  <path
     fill="#ffffff"
     d="m 1652.9281,306.68558 c 3.303,1.858 6.202,7.238 8.457,10.306 -1.901,-0.358 -4.744,-0.556 -6.179,-1.915 -1.969,-1.864 -1.973,-5.816 -2.278,-8.391 z"
     id="path171" />
  <path
     fill="#ffffff"
     d="m 1574.6441,718.44158 c 2.643,-0.076 5.109,-0.009 7.668,0.784 1.268,0.392 1.688,0.66 2.262,1.837 -1.038,3.208 -11.164,8.887 -14.338,11.191 -1.481,1.065 -3.352,2.506 -5.22,2.609 -0.86,0.047 -0.993,-0.297 -1.606,-0.798 -0.672,-1.99 -0.143,-3.747 0.633,-5.632 2.103,-5.112 5.697,-7.871 10.601,-9.991 z"
     id="path172" />
  <path
     fill="#ffffff"
     d="m 1199.6901,700.41158 c 2.927,1.45 7.229,1.194 10.516,1.484 8.172,0.721 16.393,4.265 22.981,9.088 9.499,6.954 15.309,15.644 17.155,27.27 -5.567,-0.876 -46.243,-31.823 -50.652,-37.842 z"
     id="path173" />
  <path
     fill="#ffffff"
     d="m 1382.4921,176.24558 c 5.236,-0.59 10.517,-0.468 15.775,-0.411 l -0.191,0.328 c -2.75,4.825 -6.384,9.07 -11.083,12.105 -8.064,5.209 -17.354,5.42 -26.425,3.324 -6.559,-2.309 -11.55,-6.094 -16.933,-10.355 12.918,-2.402 25.778,-3.843 38.857,-4.991 z"
     id="path174" />
  <path
     fill="#ffffff"
     d="m 1688.2161,402.53058 c 2.696,-0.272 5.489,-0.577 7.759,1.23 4.464,3.553 5.435,19.115 6.246,25.014 -4.432,2.386 -8.107,3.526 -13.096,4.227 -1.567,-0.36 -3.176,-0.826 -4.661,-1.445 -3.816,-1.591 -7.201,-4.98 -8.58,-8.9 -1.303,-3.703 -0.835,-7.682 0.926,-11.154 2.476,-4.882 6.435,-7.264 11.406,-8.972 z"
     id="path175" />
  <path
     fill="#ffffff"
     d="m 1436.6921,762.54758 c 0.941,-0.068 1.9,-0.037 2.843,-0.03 11.081,0.085 19.182,4.821 26.752,12.543 -8.089,1.882 -16.057,3.355 -24.318,4.235 -5.16,0.657 -24.624,2.619 -28.527,1.455 0.255,-1.746 1.279,-3.428 2.227,-4.907 5.03,-7.85 12.132,-11.386 21.023,-13.296 z"
     id="path176" />
  <path
     fill="#ffffff"
     d="m 1659.3851,541.56058 c 2.956,-0.218 6.334,0.645 8.971,1.982 3.819,1.937 6.538,5.635 7.652,9.726 q 0.212,0.791 0.347,1.598 0.134,0.808 0.189,1.625 0.055,0.816 0.031,1.635 -0.025,0.818 -0.129,1.63 -0.105,0.812 -0.287,1.61 -0.183,0.798 -0.443,1.574 -0.259,0.777 -0.593,1.524 -0.334,0.748 -0.739,1.459 c -2.616,4.503 -6.062,5.904 -10.819,7.173 -3.245,0.534 -6.817,-0.174 -9.705,-1.728 -3.904,-2.099 -6.407,-5.787 -7.476,-10.033 -1.116,-4.435 -0.881,-9.43 1.71,-13.323 2.804,-4.216 6.616,-5.461 11.291,-6.452 z"
     id="path177" />
  <path
     fill="#ffffff"
     d="m 1319.2571,755.13958 c 8.052,-1.258 16.904,0.764 24.299,3.903 9.417,3.996 15.899,10.149 19.716,19.692 q -7.988,-1.178 -15.896,-2.805 c -16.665,-3.353 -32.382,-7.96 -48.431,-13.519 6.334,-4.454 12.694,-6.378 20.312,-7.271 z"
     id="path178" />
  <path
     fill="#ffffff"
     d="m 1445.3211,177.02858 c 23.058,1.532 46.914,8.396 68.478,16.515 -1.835,1.225 -3.787,2.286 -5.699,3.387 q -2.76,1.354 -5.622,2.474 c -11.603,4.416 -26.123,3.263 -37.282,-1.875 -9.107,-4.193 -16.341,-11.03 -19.875,-20.501 z"
     id="path179" />
  <path
     fill="#ffffff"
     d="m 1600.1501,502.10158 c 5.283,-0.511 10.941,0.118 15.786,2.332 q 0.555,0.254 1.097,0.536 0.542,0.281 1.069,0.588 0.527,0.308 1.039,0.641 0.512,0.333 1.006,0.691 0.495,0.358 0.971,0.74 0.477,0.382 0.934,0.786 0.457,0.405 0.893,0.832 0.437,0.427 0.852,0.874 0.415,0.448 0.808,0.916 0.392,0.467 0.761,0.953 0.369,0.487 0.714,0.99 0.345,0.504 0.665,1.024 0.319,0.521 0.613,1.056 0.293,0.535 0.56,1.084 0.267,0.549 0.507,1.111 0.239,0.561 0.451,1.134 0.234,0.64 0.435,1.292 0.202,0.652 0.369,1.313 0.167,0.661 0.3,1.33 0.133,0.669 0.231,1.344 0.098,0.675 0.161,1.354 0.063,0.679 0.092,1.36 0.028,0.681 0.021,1.363 -0.01,0.682 -0.049,1.363 -0.043,0.68 -0.12,1.358 -0.077,0.678 -0.189,1.35 -0.112,0.673 -0.259,1.339 -0.146,0.666 -0.327,1.323 -0.181,0.658 -0.395,1.305 -0.214,0.648 -0.462,1.283 -0.247,0.636 -0.527,1.258 -0.28,0.622 -0.592,1.228 c -3.94,7.82 -10.305,11.554 -18.355,14.043 -6.861,0.715 -13.43,-0.155 -19.273,-4.139 q -0.544,-0.363 -1.069,-0.753 -0.525,-0.39 -1.031,-0.805 -0.505,-0.415 -0.99,-0.854 -0.484,-0.44 -0.947,-0.902 -0.462,-0.463 -0.901,-0.948 -0.439,-0.484 -0.853,-0.99 -0.415,-0.506 -0.804,-1.032 -0.39,-0.525 -0.752,-1.07 -0.363,-0.544 -0.699,-1.105 -0.336,-0.561 -0.643,-1.138 -0.308,-0.577 -0.587,-1.169 -0.279,-0.591 -0.529,-1.196 -0.249,-0.605 -0.469,-1.221 -0.22,-0.616 -0.408,-1.242 -0.189,-0.626 -0.347,-1.261 -0.158,-0.634 -0.285,-1.276 -0.127,-0.668 -0.221,-1.342 -0.093,-0.674 -0.152,-1.352 -0.06,-0.677 -0.085,-1.357 -0.025,-0.68 -0.016,-1.36 0.01,-0.681 0.052,-1.359 0.043,-0.679 0.12,-1.355 0.078,-0.676 0.189,-1.348 0.111,-0.671 0.256,-1.336 0.145,-0.664 0.323,-1.321 0.178,-0.656 0.389,-1.303 0.211,-0.647 0.454,-1.282 0.243,-0.636 0.518,-1.258 0.275,-0.622 0.58,-1.23 0.306,-0.608 0.642,-1.2 0.336,-0.591 0.701,-1.165 0.365,-0.574 0.759,-1.129 c 4.271,-5.906 9.985,-8.669 17.018,-9.696 z"
     id="path180" />
  <path
     d="m 1605.5281,507.69558 c 3.936,-0.003 8.849,1.826 11.82,4.356 4.206,3.582 6.814,9.344 7.024,14.84 0.214,5.591 -2.191,11.494 -6.151,15.434 -4.429,4.409 -9.396,5.219 -15.349,5.215 -4.361,-0.475 -8.179,-1.795 -11.573,-4.646 -4.072,-3.422 -6.943,-8.789 -7.326,-14.115 -0.393,-5.464 1.905,-11.19 5.622,-15.158 4.371,-4.667 9.852,-5.683 15.933,-5.926 z"
     id="path181" />
  <path
     fill="#ffffff"
     d="m 1267.4941,284.51758 c 6.333,-0.499 12.084,-0.344 17.791,2.908 6.156,3.508 10.443,9.714 12.247,16.497 1.863,7.006 0.864,14.125 -2.825,20.342 -4.038,6.803 -9.783,10.585 -17.288,12.566 -6.313,0.8 -11.775,0.624 -17.552,-2.387 -6.487,-3.382 -11.312,-9.755 -13.286,-16.753 -1.985,-7.04 -0.741,-14.654 2.981,-20.902 4.238,-7.113 10.25,-10.203 17.932,-12.271 z"
     id="path182" />
  <path
     d="m 1267.5661,289.45358 c 4.492,-0.206 8.336,-0.214 12.573,1.642 5.181,2.27 9.722,6.51 11.779,11.836 2.041,5.281 1.802,11.614 -0.659,16.719 -2.938,6.096 -8.209,9.846 -14.442,12.001 -4.371,0.903 -9.704,0.4 -13.772,-1.416 q -0.455,-0.208 -0.899,-0.438 -0.444,-0.229 -0.877,-0.48 -0.432,-0.252 -0.852,-0.524 -0.42,-0.272 -0.825,-0.564 -0.406,-0.292 -0.797,-0.604 -0.392,-0.311 -0.767,-0.642 -0.376,-0.33 -0.734,-0.679 -0.359,-0.348 -0.701,-0.713 -0.341,-0.366 -0.664,-0.748 -0.323,-0.381 -0.627,-0.778 -0.304,-0.397 -0.589,-0.809 -0.284,-0.411 -0.548,-0.836 -0.264,-0.425 -0.507,-0.862 -0.242,-0.437 -0.464,-0.886 -0.221,-0.448 -0.42,-0.907 -0.199,-0.459 -0.375,-0.927 -0.193,-0.522 -0.361,-1.053 -0.167,-0.531 -0.308,-1.07 -0.141,-0.538 -0.255,-1.083 -0.114,-0.545 -0.201,-1.095 -0.088,-0.549 -0.148,-1.103 -0.06,-0.553 -0.092,-1.109 -0.033,-0.556 -0.038,-1.112 -0.01,-0.557 0.016,-1.113 0.022,-0.557 0.072,-1.111 0.049,-0.555 0.126,-1.106 0.077,-0.551 0.181,-1.098 0.103,-0.547 0.234,-1.088 0.131,-0.541 0.288,-1.075 0.157,-0.535 0.34,-1.06 0.183,-0.526 0.392,-1.042 0.209,-0.516 0.443,-1.021 c 3.045,-6.469 7.973,-9.745 14.478,-12.046 z"
     id="path183" />
  <path
     fill="#ffffff"
     d="m 1601.4351,426.61658 c 5.485,-0.811 12.897,0.975 17.498,3.873 5.761,3.629 9.591,9.921 11.115,16.479 1.62,6.973 0.669,14.698 -3.22,20.777 -4.733,7.401 -11.644,10.948 -20.025,12.9 -1.012,-0.206 -2.031,-0.296 -3.058,-0.396 -5.404,-0.529 -10.308,-2.135 -14.754,-5.332 -6.077,-4.371 -9.771,-11.21 -10.84,-18.542 -1.029,-7.055 1.278,-13.922 5.45,-19.581 4.627,-6.277 10.317,-8.984 17.834,-10.178 z"
     id="path184" />
  <path
     d="m 1600.9251,432.51358 c 4.454,-0.381 8.581,-0.31 12.651,1.779 4.974,2.555 8.877,7.516 10.414,12.867 1.571,5.474 0.999,11.852 -1.847,16.819 -2.849,4.971 -7.79,8.295 -13.285,9.662 q -0.869,0.204 -1.754,0.328 -0.884,0.124 -1.776,0.167 -0.893,0.042 -1.785,0.002 -0.892,-0.04 -1.777,-0.161 -0.885,-0.121 -1.755,-0.323 -0.87,-0.203 -1.717,-0.484 -0.848,-0.281 -1.667,-0.638 -0.818,-0.358 -1.6,-0.789 c -5.086,-2.739 -9.233,-7.525 -10.833,-13.112 q -0.136,-0.479 -0.247,-0.964 -0.111,-0.485 -0.197,-0.974 -0.086,-0.49 -0.148,-0.984 -0.061,-0.494 -0.097,-0.99 -0.036,-0.496 -0.047,-0.993 -0.011,-0.498 0,-0.995 0.014,-0.497 0.054,-0.993 0.04,-0.496 0.105,-0.989 0.065,-0.494 0.155,-0.983 0.089,-0.489 0.204,-0.973 0.115,-0.484 0.254,-0.962 0.139,-0.478 0.302,-0.948 0.164,-0.469 0.35,-0.931 0.187,-0.461 0.398,-0.912 0.21,-0.45 0.442,-0.89 0.233,-0.44 0.488,-0.867 c 3.388,-5.761 8.416,-9.016 14.711,-10.769 z"
     id="path185" />
  <path
     fill="#ffffff"
     d="m 1207.7491,403.24558 c 5.111,-0.093 11.258,2.415 15.273,5.441 5.671,4.275 9.178,10.809 10.124,17.798 q 0.094,0.678 0.153,1.36 0.059,0.682 0.083,1.366 0.023,0.684 0.011,1.368 -0.012,0.685 -0.059,1.368 -0.048,0.683 -0.13,1.362 -0.083,0.679 -0.201,1.354 -0.118,0.674 -0.271,1.341 -0.153,0.667 -0.34,1.326 -0.187,0.658 -0.408,1.306 -0.222,0.648 -0.476,1.283 -0.255,0.636 -0.542,1.257 -0.287,0.622 -0.606,1.227 -0.318,0.606 -0.668,1.194 -0.35,0.589 -0.73,1.158 -0.38,0.569 -0.789,1.118 -0.409,0.549 -0.846,1.076 c -5.492,6.727 -12.264,8.993 -20.582,9.743 -6.533,0.204 -12.329,-1.816 -17.308,-6.097 -5.888,-5.063 -9.613,-12.081 -10.02,-19.915 -0.363,-7.004 2.253,-13.504 7.079,-18.553 5.733,-6 13.04,-8.819 21.253,-8.881 z"
     id="path186" />
  <path
     d="m 1202.4151,409.47358 c 4.261,-0.563 8.956,-0.071 12.871,1.724 q 0.466,0.215 0.921,0.451 0.454,0.237 0.897,0.496 0.443,0.259 0.873,0.539 0.429,0.279 0.845,0.58 0.416,0.3 0.816,0.62 0.401,0.32 0.786,0.66 0.384,0.339 0.752,0.696 0.367,0.358 0.717,0.733 0.35,0.375 0.682,0.766 0.331,0.391 0.643,0.798 0.312,0.407 0.604,0.829 0.291,0.422 0.563,0.857 0.271,0.435 0.52,0.883 0.25,0.448 0.477,0.908 0.228,0.459 0.433,0.93 0.205,0.47 0.387,0.949 c 1.786,4.823 1.831,10.554 -0.387,15.247 -2.957,6.258 -8.663,9.677 -14.86,12.061 -4.219,0.728 -8.422,0.558 -12.431,-1.045 -5.371,-2.147 -9.483,-6.699 -11.53,-12.063 -1.968,-5.157 -1.776,-10.609 0.596,-15.6 3.16,-6.652 8.216,-9.579 14.825,-12.019 z"
     id="path187" />
  <path
     fill="#ffffff"
     d="m 1664.9441,323.10958 c 5.54,4.906 20.352,39.295 23.681,48.512 -0.769,1.032 -1.578,1.974 -2.472,2.9 -7.654,7.928 -16.079,9.724 -26.75,9.921 -3.571,-1.041 -6.555,-1.586 -9.86,-3.488 -6.838,-3.935 -12.141,-10.522 -14.01,-18.239 q -0.183,-0.774 -0.327,-1.556 -0.144,-0.782 -0.249,-1.57 -0.105,-0.788 -0.17,-1.58 -0.066,-0.792 -0.092,-1.587 -0.026,-0.794 -0.012,-1.589 0.013,-0.795 0.066,-1.589 0.053,-0.793 0.145,-1.582 0.093,-0.79 0.224,-1.574 0.132,-0.784 0.302,-1.561 0.17,-0.776 0.379,-1.543 0.209,-0.768 0.455,-1.523 0.247,-0.756 0.531,-1.499 0.284,-0.742 0.604,-1.47 0.321,-0.728 0.677,-1.438 0.356,-0.711 0.748,-1.403 0.391,-0.692 0.816,-1.364 c 5.977,-9.51 14.84,-12.818 25.314,-15.178 z"
     id="path188" />
  <path
     fill="#ffffff"
     d="m 1227.5021,558.19358 c 7.606,0.383 14.139,3.034 19.319,8.783 5.039,5.592 7.372,12.981 6.75,20.456 -0.632,7.618 -4.468,15.13 -10.489,19.88 -4.748,3.746 -10.909,5.969 -16.985,5.278 l -0.655,0.367 c -5.959,-0.638 -11.654,-2.909 -16.176,-6.908 q -0.517,-0.457 -1.011,-0.938 -0.495,-0.481 -0.965,-0.986 -0.471,-0.504 -0.916,-1.031 -0.445,-0.527 -0.865,-1.075 -0.419,-0.548 -0.811,-1.116 -0.392,-0.567 -0.756,-1.153 -0.364,-0.586 -0.7,-1.189 -0.335,-0.603 -0.64,-1.222 -0.306,-0.618 -0.581,-1.251 -0.275,-0.633 -0.52,-1.278 -0.244,-0.645 -0.456,-1.301 -0.213,-0.657 -0.393,-1.323 -0.181,-0.665 -0.329,-1.339 -0.148,-0.674 -0.263,-1.355 -0.115,-0.68 -0.197,-1.365 -0.081,-0.685 -0.13,-1.373 c -0.504,-7.248 1.561,-14.494 6.464,-19.971 5.679,-6.343 13.146,-8.284 21.305,-8.59 z"
     id="path189" />
  <path
     d="m 1223.0351,564.04258 c 4.972,-0.371 9.614,0.053 13.983,2.704 4.892,2.967 8.902,8.036 10.243,13.641 1.357,5.667 0,11.853 -3.027,16.766 -3.109,5.043 -7.198,7.415 -12.764,8.819 -5.078,0.524 -10.052,0.167 -14.65,-2.263 q -0.476,-0.254 -0.938,-0.531 -0.462,-0.278 -0.91,-0.578 -0.448,-0.301 -0.879,-0.624 -0.432,-0.323 -0.847,-0.668 -0.414,-0.345 -0.811,-0.71 -0.397,-0.366 -0.774,-0.751 -0.377,-0.385 -0.735,-0.789 -0.357,-0.403 -0.693,-0.825 -0.337,-0.421 -0.651,-0.86 -0.315,-0.438 -0.606,-0.891 -0.292,-0.454 -0.56,-0.922 -0.268,-0.467 -0.512,-0.948 -0.244,-0.481 -0.464,-0.974 -0.219,-0.492 -0.413,-0.996 -0.193,-0.503 -0.361,-1.015 -0.168,-0.513 -0.31,-1.033 -0.143,-0.519 -0.26,-1.045 -0.117,-0.525 -0.208,-1.056 -0.09,-0.53 -0.154,-1.065 -0.064,-0.535 -0.101,-1.072 -0.037,-0.537 -0.047,-1.075 -0.01,-0.538 0.01,-1.076 0.017,-0.539 0.061,-1.075 0.044,-0.537 0.115,-1.07 0.07,-0.534 0.168,-1.064 0.097,-0.529 0.221,-1.053 0.124,-0.524 0.274,-1.041 0.15,-0.517 0.325,-1.026 0.176,-0.509 0.377,-1.008 0.201,-0.5 0.426,-0.989 0.226,-0.488 0.476,-0.965 0.25,-0.477 0.523,-0.941 c 3.321,-5.617 8.309,-8.483 14.476,-9.931 z"
     id="path190" />
  <path
     fill="#ffffff"
     d="m 1580.1771,343.12558 c 6.061,-0.435 11.8,0.352 17.142,3.504 6.377,3.762 11.005,10.39 12.624,17.594 1.632,7.263 -0.119,14.937 -4.186,21.099 -4.402,6.67 -10.659,10.083 -18.289,11.684 l -2.978,0.169 c -6.175,0.354 -12.662,-1.718 -17.63,-5.423 -5.983,-4.46 -9.82,-10.784 -10.707,-18.237 q -0.076,-0.696 -0.118,-1.395 -0.042,-0.699 -0.051,-1.399 -0.01,-0.7 0.017,-1.4 0.025,-0.7 0.084,-1.397 0.059,-0.698 0.151,-1.392 0.093,-0.694 0.219,-1.383 0.125,-0.689 0.284,-1.371 0.159,-0.682 0.351,-1.355 0.191,-0.674 0.415,-1.337 0.224,-0.664 0.479,-1.316 0.255,-0.652 0.542,-1.291 0.286,-0.638 0.603,-1.263 0.317,-0.624 0.664,-1.233 0.347,-0.608 0.722,-1.199 0.376,-0.591 0.78,-1.163 0.403,-0.572 0.834,-1.124 c 4.602,-5.784 10.862,-8.56 18.048,-9.372 z"
     id="path191" />
  <path
     d="m 1578.3661,349.53058 c 4.423,-0.301 8.472,-0.229 12.647,1.49 q 0.501,0.205 0.99,0.436 0.489,0.23 0.966,0.485 0.477,0.255 0.941,0.534 0.463,0.279 0.911,0.581 0.449,0.302 0.882,0.627 0.432,0.325 0.847,0.671 0.416,0.346 0.813,0.713 0.398,0.367 0.776,0.754 0.378,0.387 0.736,0.792 0.357,0.406 0.694,0.829 0.337,0.423 0.652,0.863 0.314,0.44 0.606,0.895 0.292,0.456 0.561,0.925 0.268,0.47 0.512,0.952 0.244,0.483 0.463,0.978 0.219,0.494 0.413,0.999 0.191,0.494 0.357,0.998 0.166,0.503 0.306,1.015 0.141,0.511 0.255,1.029 0.114,0.518 0.201,1.041 0.088,0.522 0.148,1.049 0.061,0.527 0.095,1.056 0.034,0.529 0.041,1.059 0.01,0.53 -0.013,1.06 -0.02,0.53 -0.067,1.058 -0.047,0.528 -0.121,1.053 -0.073,0.525 -0.174,1.046 -0.1,0.52 -0.227,1.035 -0.126,0.515 -0.279,1.023 -0.152,0.508 -0.331,1.007 -0.178,0.499 -0.381,0.989 -0.204,0.489 -0.432,0.968 c -3.012,6.225 -8.122,9.182 -14.408,11.293 -5.155,0.49 -9.996,0.389 -14.717,-2.076 -5.144,-2.686 -8.835,-7.526 -10.509,-13.042 -1.581,-5.212 -0.989,-10.628 1.593,-15.418 3.092,-5.736 8.101,-9.075 14.253,-10.767 z"
     id="path192" />
  <path
     fill="#ffffff"
     d="m 1144.2101,573.13558 c 3.143,0.012 6.184,0.077 9.248,0.872 7.724,2.004 14.663,6.946 18.581,13.968 3.91,7.006 4.835,15.825 2.623,23.513 -3.026,10.516 -10.822,17.65 -20.165,22.747 1.998,5.997 3.819,12.321 3.973,18.679 l -0.454,0.683 -0.659,-0.284 c -3.309,-4.121 -5.797,-9.018 -8.475,-13.564 -10.15,-17.227 -20.106,-35.483 -26.38,-54.545 l 0.104,-0.13 c 5.961,-7.256 12.141,-10.943 21.604,-11.939 z"
     id="path193" />
  <path
     fill="#ffffff"
     d="m 1535.1451,617.52858 c 5.951,-0.433 11.337,0.183 16.704,2.944 q 0.623,0.324 1.228,0.678 0.606,0.355 1.193,0.74 0.587,0.384 1.154,0.797 0.567,0.414 1.113,0.855 0.546,0.441 1.069,0.909 0.523,0.468 1.021,0.962 0.499,0.493 0.973,1.011 0.473,0.518 0.92,1.059 0.447,0.541 0.867,1.104 0.419,0.563 0.81,1.146 0.39,0.583 0.751,1.184 0.361,0.602 0.692,1.221 0.33,0.62 0.629,1.254 0.299,0.635 0.566,1.284 0.267,0.649 0.501,1.311 0.234,0.662 0.435,1.334 c 2.005,6.701 1.047,13.551 -2.294,19.632 -4.627,8.422 -11.654,12.663 -20.652,15.363 -6.585,0.338 -11.782,0.25 -17.773,-3.02 -6.5,-3.549 -11.239,-9.952 -13.125,-17.075 q -0.178,-0.666 -0.322,-1.339 -0.144,-0.674 -0.255,-1.354 -0.11,-0.68 -0.187,-1.364 -0.076,-0.685 -0.118,-1.373 -0.042,-0.687 -0.05,-1.376 -0.01,-0.689 0.019,-1.378 0.026,-0.688 0.087,-1.374 0.061,-0.686 0.157,-1.369 0.095,-0.682 0.224,-1.359 0.129,-0.676 0.292,-1.346 0.163,-0.669 0.359,-1.33 0.196,-0.66 0.424,-1.31 0.229,-0.65 0.49,-1.287 0.261,-0.638 0.553,-1.262 0.292,-0.624 0.616,-1.232 0.323,-0.608 0.676,-1.2 c 4.632,-7.635 11.802,-11.465 20.253,-13.44 z"
     id="path194" />
  <path
     d="m 1535.4131,623.07458 c 5.29,-0.487 10.21,0.294 14.818,3.056 4.947,2.966 8.745,7.765 10.077,13.414 q 0.124,0.528 0.222,1.061 0.098,0.533 0.169,1.07 0.072,0.537 0.116,1.077 0.045,0.54 0.063,1.082 0.017,0.541 0.01,1.083 -0.01,0.542 -0.045,1.083 -0.036,0.541 -0.098,1.079 -0.063,0.538 -0.152,1.073 -0.09,0.534 -0.205,1.064 -0.116,0.529 -0.258,1.052 -0.141,0.523 -0.309,1.039 -0.167,0.515 -0.36,1.021 -0.193,0.507 -0.411,1.003 -0.218,0.496 -0.46,0.981 -0.242,0.485 -0.507,0.957 -0.266,0.473 -0.555,0.931 c -3.796,5.924 -9.405,8.621 -16.034,10.092 -4.751,0.617 -8.803,0.244 -13.122,-2.042 q -0.469,-0.246 -0.925,-0.516 -0.456,-0.269 -0.898,-0.562 -0.441,-0.292 -0.868,-0.607 -0.426,-0.314 -0.835,-0.65 -0.41,-0.336 -0.802,-0.693 -0.392,-0.356 -0.765,-0.732 -0.373,-0.376 -0.727,-0.77 -0.354,-0.395 -0.687,-0.807 -0.333,-0.412 -0.644,-0.84 -0.312,-0.428 -0.601,-0.872 -0.29,-0.444 -0.556,-0.902 -0.266,-0.458 -0.509,-0.928 -0.243,-0.471 -0.461,-0.954 -0.218,-0.483 -0.412,-0.976 -0.193,-0.493 -0.362,-0.995 -0.168,-0.503 -0.31,-1.013 c -1.638,-5.87 -0.972,-12.542 2.158,-17.81 3.553,-5.981 8.766,-8.792 15.247,-10.549 z"
     id="path195" />
  <path
     fill="#ffffff"
     d="m 1206.5801,474.24258 c 6.008,0.192 12.326,2.903 16.814,6.823 q 0.514,0.45 1.004,0.925 0.491,0.475 0.956,0.975 0.466,0.499 0.906,1.022 0.44,0.522 0.853,1.066 0.413,0.544 0.798,1.108 0.385,0.564 0.74,1.147 0.356,0.583 0.682,1.183 0.326,0.6 0.622,1.216 0.295,0.615 0.559,1.245 0.263,0.63 0.495,1.273 0.231,0.642 0.43,1.295 0.199,0.654 0.364,1.316 0.166,0.663 0.298,1.333 0.132,0.67 0.229,1.346 0.098,0.676 0.162,1.356 0.063,0.68 0.092,1.362 c 0.375,7.927 -2.506,15.432 -7.928,21.208 -5.838,6.218 -12.583,8.775 -21.015,9.098 q -1.248,-0.027 -2.489,-0.165 -1.241,-0.138 -2.464,-0.386 -1.224,-0.248 -2.421,-0.604 -1.196,-0.356 -2.356,-0.817 -1.16,-0.462 -2.275,-1.024 -1.114,-0.563 -2.174,-1.223 -1.06,-0.66 -2.057,-1.411 -0.997,-0.752 -1.923,-1.589 c -5.795,-5.344 -8.416,-13.134 -8.524,-20.872 q -0.01,-0.724 0.02,-1.447 0.028,-0.723 0.092,-1.444 0.063,-0.721 0.162,-1.438 0.099,-0.717 0.234,-1.429 0.134,-0.711 0.303,-1.415 0.169,-0.703 0.373,-1.398 0.204,-0.694 0.442,-1.378 0.237,-0.684 0.509,-1.355 0.271,-0.671 0.575,-1.328 0.304,-0.657 0.64,-1.298 0.336,-0.641 0.703,-1.265 0.367,-0.623 0.765,-1.228 0.397,-0.605 0.824,-1.19 0.427,-0.584 0.882,-1.147 0.456,-0.563 0.938,-1.102 0.483,-0.54 0.991,-1.055 c 6.053,-6.027 13.032,-7.226 21.169,-7.289 z"
     id="path196" />
  <path
     d="m 1201.2641,480.07958 c 0.608,0.249 0.944,0.331 1.61,0.312 4.609,-0.133 9.199,0.625 13.156,3.101 5.014,3.138 8.905,8.014 10.148,13.864 1.3,6.12 -0.354,12.529 -3.906,17.608 -3.541,5.063 -7.869,7.655 -13.882,8.719 -4.649,0.588 -9.401,0.352 -13.689,-1.694 -5.265,-2.512 -9.206,-7.348 -11.015,-12.857 -1.878,-5.718 -1.168,-11.74 1.555,-17.067 3.519,-6.885 8.961,-9.833 16.023,-11.986 z"
     id="path197" />
  <path
     fill="#ffffff"
     d="m 1589.0541,653.02958 c 9.002,-0.445 17.95,1.492 25.032,7.373 7.585,6.3 10.197,14.406 11.145,23.936 -7.42,10.058 -20.106,20.424 -29.61,28.616 -1.122,0.928 -2.236,1.889 -3.619,2.402 -3.874,1.436 -9.371,-0.606 -12.716,-2.546 -7.478,-4.337 -13.318,-12.31 -15.495,-20.667 -1.971,-7.562 -0.183,-16.75 3.699,-23.477 4.805,-8.326 12.409,-13.26 21.564,-15.637 z"
     id="path198" />
  <path
     fill="#ffffff"
     d="m 1246.9501,221.07858 0.209,0.162 c -0.467,2.785 -1.454,5.19 -2.92,7.589 -5.625,9.201 -13.765,10.099 -23.407,12.352 9.569,2.123 16.951,6.195 22.442,14.554 4.548,6.922 5.946,15.078 4.189,23.14 -1.64,7.522 -6.213,13.834 -12.661,17.961 -7.958,5.093 -16.731,5.738 -25.796,3.805 -12.192,-4.477 -12.185,-9.41 -20.54,-16.518 -2.395,-2.038 -5.138,-3.419 -7.917,-4.845 13.553,-16.312 30.059,-32.247 47.038,-44.993 6.224,-4.672 12.907,-8.858 19.363,-13.207 z"
     id="path199" />
  <path
     fill="#ffffff"
     d="m 1120.3871,456.68758 c 22.877,-0.218 40.399,7.785 59.367,19.815 -7.752,6.938 -14.027,16.411 -16.467,26.608 -2.59,10.827 1.883,20.094 7.357,29.111 -14.288,5.711 -29.12,10.964 -44.741,8.711 -5.263,-0.758 -14.893,-2.392 -18.231,-6.829 q -0.609,-8.07 -1.691,-16.09 c 0.925,1.357 1.948,2.666 3.132,3.808 5.046,4.868 11.93,8.144 19.027,7.914 6.828,-0.22 13.83,-4.183 18.346,-9.174 4.547,-5.026 7.272,-11.844 6.826,-18.666 -0.459,-7.01 -4.209,-13.678 -9.506,-18.218 -5.591,-4.792 -13.295,-7.712 -20.703,-7.016 -8.825,0.828 -14.171,6.201 -19.528,12.61 -0.196,-9.61 0.346,-19.065 1.04,-28.646 5.301,-1.915 10.139,-3.471 15.772,-3.938 z"
     id="path200" />
  <path
     fill="#ffffff"
     d="m 1139.1161,382.61958 c 7.786,-0.313 14.361,1.579 20.703,6.12 6.968,4.99 11.826,12.239 13.197,20.768 q 0.122,0.747 0.207,1.499 0.085,0.752 0.132,1.507 0.047,0.755 0.057,1.512 0.01,0.757 -0.019,1.513 -0.028,0.756 -0.094,1.51 -0.066,0.754 -0.17,1.504 -0.103,0.75 -0.244,1.493 -0.141,0.744 -0.319,1.479 -0.177,0.736 -0.392,1.462 -0.214,0.726 -0.464,1.44 -0.25,0.714 -0.536,1.415 -0.285,0.701 -0.606,1.386 -0.32,0.686 -0.674,1.355 -0.354,0.669 -0.741,1.319 -0.386,0.651 -0.805,1.281 -0.419,0.63 -0.869,1.239 c -4.969,6.647 -12.721,10.76 -20.871,11.921 -7.641,0.873 -14.846,-0.04 -21.321,-4.535 -6.735,-4.676 -11.98,-12.413 -13.319,-20.562 -1.223,-7.44 1.547,-20.408 6.182,-26.355 5.207,-6.681 12.928,-9.198 20.966,-10.271 z"
     id="path201" />
  <path
     fill="#ffffff"
     d="m 1331.3791,184.53858 c 0.603,-0.057 0.935,0.068 1.508,0.239 6.249,5.897 10.456,16.443 11.409,24.873 1.216,10.748 -2.993,21.7 -9.661,29.991 -7.313,9.093 -16.999,15.599 -28.789,16.85 -11.055,1.173 -23.434,-1.527 -32.162,-8.701 -7.524,-6.185 -15.891,-18.034 -16.445,-27.991 -0.118,-2.122 0.034,-3.654 1.468,-5.186 7.451,-4.48 15.139,-8.592 22.745,-12.803 l -0.402,0.376 c -3.61,3.394 -5.66,6.812 -5.679,11.971 q -0.01,0.448 0.011,0.896 0.017,0.448 0.056,0.894 0.039,0.447 0.101,0.89 0.062,0.444 0.146,0.885 0.084,0.44 0.191,0.875 0.106,0.435 0.234,0.865 0.128,0.429 0.278,0.852 0.15,0.422 0.321,0.836 0.171,0.415 0.362,0.82 0.192,0.405 0.403,0.8 0.212,0.395 0.444,0.779 0.231,0.383 0.482,0.755 0.25,0.372 0.519,0.73 0.269,0.358 0.556,0.703 0.286,0.344 0.59,0.674 0.304,0.329 0.624,0.643 c 3.307,3.181 7.945,5.116 12.56,4.862 4.558,-0.25 9.367,-2.834 12.232,-6.37 2.925,-3.61 3.856,-9.137 3.216,-13.665 q -0.104,-0.713 -0.279,-1.413 -0.175,-0.699 -0.42,-1.377 -0.245,-0.678 -0.556,-1.328 -0.312,-0.65 -0.688,-1.265 -0.376,-0.615 -0.811,-1.189 -0.436,-0.575 -0.927,-1.102 -0.492,-0.527 -1.034,-1.003 -0.542,-0.475 -1.129,-0.893 c -4.71,-3.417 -10.389,-3.506 -15.938,-2.587 -0.266,0.044 -0.532,0.094 -0.798,0.141 1.739,-2.74 39.396,-13.646 45.262,-15.327 z"
     id="path202" />
  <path
     fill="#ffffff"
     d="m 1361.3171,230.08158 c 6.745,-0.776 14.339,0.833 20.126,4.428 q 0.729,0.462 1.434,0.96 0.705,0.498 1.384,1.03 0.68,0.533 1.332,1.098 0.652,0.566 1.275,1.163 0.623,0.597 1.215,1.225 0.593,0.627 1.154,1.284 0.56,0.656 1.087,1.339 0.527,0.684 1.02,1.392 0.492,0.709 0.949,1.442 0.457,0.732 0.876,1.486 0.42,0.755 0.801,1.529 0.382,0.774 0.724,1.566 0.343,0.792 0.645,1.601 0.303,0.808 0.565,1.63 0.262,0.823 0.482,1.657 0.221,0.835 0.4,1.679 c 1.902,8.632 0.603,17.929 -4.244,25.39 -6.249,9.619 -14.939,14.063 -25.852,16.38 -7.202,0.738 -16.406,-2.357 -22.291,-6.475 -7.071,-4.948 -11.986,-13.122 -13.34,-21.626 -1.477,-9.277 1.379,-19.159 6.964,-26.614 5.652,-7.543 14.034,-12.169 23.294,-13.564 z"
     id="path203" />
  <path
     fill="#ffffff"
     d="m 1444.9291,655.18658 c 0.201,-0.034 0.399,-0.085 0.603,-0.101 7.136,-0.554 16.763,4.511 22.066,8.955 6.801,5.701 11.273,14.87 11.981,23.692 0.718,8.946 -2.88,18.325 -8.699,25.047 -5.609,6.48 -14.129,11.24 -22.771,11.8 -9.03,0.115 -17.343,-2.008 -24.403,-7.88 -7.085,-5.893 -11.243,-14.47 -11.976,-23.596 -0.752,-9.357 1.489,-18.736 7.726,-25.924 6.466,-7.451 15.758,-11.353 25.473,-11.993 z"
     id="path204" />
  <path
     fill="#ffffff"
     d="m 1373.9811,697.11758 c 9.144,-0.858 17.779,0.846 25.425,6.067 q 0.713,0.493 1.401,1.02 0.688,0.527 1.349,1.087 0.662,0.561 1.295,1.152 0.634,0.592 1.238,1.213 0.603,0.622 1.176,1.273 0.573,0.65 1.114,1.328 0.54,0.677 1.047,1.38 0.507,0.703 0.979,1.43 0.472,0.727 0.908,1.476 0.437,0.749 0.836,1.518 0.399,0.77 0.76,1.558 0.361,0.788 0.684,1.592 0.322,0.805 0.605,1.624 0.283,0.819 0.525,1.651 0.243,0.833 0.445,1.675 0.202,0.843 0.362,1.695 c 1.589,8.796 -0.516,18.51 -5.708,25.795 -5.671,7.957 -13.777,12.063 -23.245,13.687 -9.226,0.86 -17.86,-0.041 -25.584,-5.505 q -0.699,-0.493 -1.372,-1.021 -0.673,-0.527 -1.32,-1.087 -0.646,-0.56 -1.264,-1.151 -0.618,-0.591 -1.206,-1.212 -0.588,-0.622 -1.144,-1.271 -0.556,-0.65 -1.08,-1.326 -0.523,-0.676 -1.013,-1.378 -0.489,-0.701 -0.943,-1.426 -0.454,-0.725 -0.872,-1.471 -0.417,-0.746 -0.797,-1.512 -0.38,-0.767 -0.722,-1.551 -0.342,-0.784 -0.644,-1.583 -0.303,-0.8 -0.565,-1.614 -0.262,-0.814 -0.484,-1.64 -0.222,-0.826 -0.402,-1.662 -0.181,-0.836 -0.32,-1.68 c -1.639,-9.934 1.071,-19.972 7.027,-28.065 5.25,-7.134 12.941,-10.798 21.509,-12.066 z"
     id="path205" />
  <path
     fill="#ffffff"
     d="m 1427.0961,189.62858 c 8.061,-0.766 16.548,1.734 23.07,6.495 7.816,5.706 13.441,15.117 14.829,24.687 q 0.121,0.868 0.2,1.742 0.079,0.873 0.115,1.749 0.036,0.876 0.029,1.753 -0.01,0.876 -0.057,1.752 -0.049,0.875 -0.142,1.747 -0.093,0.872 -0.228,1.738 -0.135,0.866 -0.312,1.725 -0.178,0.859 -0.397,1.708 -0.219,0.849 -0.48,1.686 -0.26,0.837 -0.562,1.66 -0.301,0.824 -0.642,1.631 -0.341,0.808 -0.721,1.598 -0.381,0.79 -0.799,1.561 -0.418,0.77 -0.874,1.519 -0.456,0.749 -0.947,1.475 -0.492,0.726 -1.019,1.427 c -6.094,8.004 -14.109,11.785 -23.902,13.135 -9.5,0.306 -17.892,-1.421 -25.601,-7.315 -6.975,-5.332 -11.972,-13.363 -13.135,-22.112 -1.359,-10.226 0.868,-20.165 7.286,-28.332 6.07,-7.724 14.652,-11.91 24.289,-13.029 z"
     id="path206" />
  <path
     fill="#ffffff"
     d="m 1666.3271,452.12658 c 0.189,-0.026 0.377,-0.058 0.567,-0.076 9.865,-0.931 18.965,0.886 26.576,7.529 7.006,6.115 11.81,14.46 12.427,23.838 0.691,10.478 -1.339,21.487 -8.422,29.485 -5.828,6.581 -14.123,10.357 -22.874,10.919 -0.746,0.083 -1.488,0.153 -2.235,0.222 -8.292,0.765 -18.379,-2.722 -24.875,-7.843 -7.461,-5.881 -12.729,-14.132 -13.822,-23.67 -1.098,-9.59 2.032,-19.359 8.094,-26.819 5.893,-7.251 15.224,-12.678 24.564,-13.585 z"
     id="path207" />
  <path
     fill="#ffffff"
     d="m 1399.7051,442.11258 c 8.781,-1.162 17.669,0.426 25.16,5.204 8.245,5.258 14.504,14.686 16.599,24.2 2.025,9.197 -0.137,19.183 -5.173,27.067 -5.759,9.015 -14.063,14.58 -24.404,16.916 -9.716,1.348 -19.467,-0.206 -27.518,-6.023 -8.377,-6.052 -14.598,-14.956 -16.141,-25.269 q -0.133,-0.918 -0.221,-1.841 -0.088,-0.923 -0.131,-1.849 -0.042,-0.927 -0.039,-1.854 0,-0.928 0.05,-1.854 0.048,-0.926 0.142,-1.848 0.093,-0.923 0.231,-1.84 0.138,-0.917 0.321,-1.826 0.183,-0.909 0.41,-1.808 0.228,-0.899 0.499,-1.786 0.27,-0.887 0.584,-1.76 0.314,-0.872 0.671,-1.729 0.356,-0.856 0.754,-1.694 0.397,-0.837 0.836,-1.654 0.438,-0.818 0.915,-1.613 0.478,-0.794 0.994,-1.565 0.516,-0.771 1.069,-1.515 c 6.01,-7.932 14.595,-12.737 24.392,-14.059 z"
     id="path208" />
  <path
     d="m 1403.9491,449.73458 c 6.893,0.39 13.717,2.201 19.209,6.57 6.048,4.813 10.115,12.736 10.821,20.413 0.678,7.368 -1.846,15.134 -6.605,20.782 -5.432,6.446 -12.393,9.336 -20.706,10.104 -7.115,-0.028 -13.116,-1.405 -18.888,-5.715 q -0.581,-0.437 -1.139,-0.902 -0.558,-0.465 -1.092,-0.957 -0.534,-0.493 -1.042,-1.012 -0.509,-0.519 -0.99,-1.062 -0.482,-0.544 -0.936,-1.111 -0.454,-0.568 -0.878,-1.157 -0.425,-0.59 -0.82,-1.2 -0.394,-0.609 -0.757,-1.239 -0.364,-0.629 -0.695,-1.275 -0.331,-0.647 -0.63,-1.309 -0.298,-0.662 -0.563,-1.339 -0.264,-0.677 -0.494,-1.366 -0.231,-0.689 -0.426,-1.388 -0.195,-0.7 -0.355,-1.409 -0.16,-0.708 -0.284,-1.424 -0.124,-0.716 -0.212,-1.437 c -0.941,-7.612 0.883,-15.454 5.691,-21.524 5.641,-7.12 13.077,-10.006 21.791,-11.043 z"
     id="path209" />
  <path
     fill="#ffffff"
     d="m 1202.3441,623.15258 c 9.403,-0.659 18.256,2.051 25.808,7.651 8.116,6.018 13.996,15.788 15.414,25.811 1.314,9.295 -1.148,20.073 -6.874,27.579 -6.01,7.88 -16.36,12.995 -26.082,14.228 -4.091,0.004 -8.209,0.368 -12.293,0.608 l 0.493,0.075 -0.314,1.139 0.436,-0.878 c -9.575,-6.302 -23.585,-22.342 -29.854,-32.075 -0.699,-11.867 0.571,-21.622 8.436,-31.097 6.519,-7.853 14.744,-12.056 24.83,-13.041 z"
     id="path210" />
  <path
     fill="#ffffff"
     d="m 1520.3021,210.20858 c 8.029,-1.282 17.176,1.187 23.857,5.671 8.401,5.639 14.818,14.776 16.72,24.762 q 0.174,0.905 0.302,1.817 0.128,0.912 0.21,1.83 0.082,0.917 0.118,1.838 0.036,0.92 0.026,1.842 -0.01,0.921 -0.066,1.84 -0.056,0.92 -0.159,1.835 -0.102,0.916 -0.25,1.825 -0.148,0.909 -0.342,1.81 -0.193,0.901 -0.432,1.79 -0.238,0.89 -0.521,1.767 -0.283,0.877 -0.609,1.738 -0.327,0.862 -0.696,1.706 -0.369,0.844 -0.78,1.668 -0.411,0.825 -0.863,1.627 -0.452,0.803 -0.943,1.582 -0.492,0.78 -1.022,1.533 c -6.661,9.498 -15.524,13.887 -26.704,15.915 q -0.869,0.095 -1.739,0.175 c -8.938,0.83 -18.938,-3.089 -25.723,-8.862 -7.786,-6.624 -12.318,-15.807 -13.066,-25.958 -0.781,-10.586 2.676,-20.636 9.662,-28.644 6.26,-7.175 13.644,-10.427 23.02,-11.107 z"
     id="path211" />
  <path
     d="m 1519.8941,218.59958 c 6.202,-0.789 12.993,0.494 18.43,3.588 6.675,3.799 12.017,11.185 13.908,18.611 1.821,7.155 0.222,15.239 -3.633,21.487 -4.092,6.632 -11.245,11.196 -18.737,12.991 -7.893,1.228 -14.747,0.454 -21.505,-4.151 -6.449,-4.394 -10.494,-11.239 -11.85,-18.854 -1.397,-7.841 0.104,-16.073 4.837,-22.578 4.576,-6.288 10.978,-9.796 18.55,-11.094 z"
     id="path212" />
  <path
     fill="#ffffff"
     d="m 1488.8451,278.19158 c 10.219,-0.7 18.56,1.934 26.93,7.86 11.199,7.927 19.984,21.376 22.202,34.958 1.371,8.394 -0.203,18.306 -5.366,25.221 -4.739,6.349 -11.602,9.289 -19.183,10.535 -8.67,0.775 -18.087,-3.028 -25.08,-7.913 -11.91,-8.32 -21.036,-21.17 -23.464,-35.653 -1.367,-8.156 0.157,-17.805 5.212,-24.506 4.467,-5.92 11.514,-9.452 18.749,-10.502 z"
     id="path213" />
  <path
     d="m 1492.0031,284.64258 c 6.109,-0.558 14.21,2.921 19.198,6.257 10.026,6.707 18.443,18.173 20.734,30.123 1.358,7.079 0.251,14.719 -3.987,20.676 -3.875,5.446 -9.172,7.971 -15.587,9.011 -1.757,-0.224 -3.539,-0.075 -5.316,-0.33 -6.024,-0.865 -11.661,-4.039 -16.443,-7.67 -9.608,-7.299 -18.009,-19.286 -19.485,-31.488 -0.821,-6.789 0.707,-13.747 5.117,-19.097 4.208,-5.106 9.434,-6.874 15.769,-7.482 z"
     id="path214" />
  <path
     fill="#ffffff"
     d="m 1540.3111,519.15158 c 7.617,-1.088 18.395,3.778 24.444,8.156 8.394,6.077 13.117,13.937 14.741,24.158 1.562,9.834 -0.558,19.228 -6.511,27.271 -6.62,8.942 -15.967,14.13 -26.882,15.74 -9.492,0.128 -18.376,-0.994 -26.232,-6.797 q -0.746,-0.561 -1.463,-1.159 -0.717,-0.597 -1.404,-1.229 -0.687,-0.632 -1.342,-1.297 -0.655,-0.664 -1.276,-1.361 -0.622,-0.696 -1.208,-1.422 -0.586,-0.727 -1.136,-1.481 -0.55,-0.754 -1.062,-1.534 -0.512,-0.781 -0.985,-1.585 -0.473,-0.805 -0.906,-1.632 -0.433,-0.826 -0.825,-1.674 -0.391,-0.847 -0.74,-1.712 -0.35,-0.866 -0.656,-1.747 -0.307,-0.882 -0.569,-1.778 -0.263,-0.895 -0.481,-1.803 -0.218,-0.907 -0.391,-1.824 -0.173,-0.917 -0.301,-1.842 c -1.456,-10.165 0.761,-20.547 7.073,-28.734 7.386,-9.581 16.453,-13.15 28.112,-14.714 z"
     id="path215" />
  <path
     d="m 1540.4881,528.13658 q 0.678,-0.045 1.358,-0.058 0.68,-0.012 1.359,0.008 0.68,0.021 1.357,0.074 0.678,0.054 1.352,0.14 0.675,0.086 1.344,0.205 0.67,0.118 1.332,0.269 0.663,0.151 1.318,0.334 0.655,0.183 1.3,0.397 0.645,0.215 1.279,0.46 0.634,0.245 1.255,0.521 0.622,0.276 1.229,0.581 0.608,0.306 1.199,0.64 0.592,0.335 1.167,0.697 0.575,0.363 1.132,0.753 0.556,0.39 1.094,0.807 0.537,0.417 1.053,0.859 c 6.25,5.34 9.922,12.676 10.434,20.891 0.471,7.557 -2.267,14.749 -7.272,20.361 q -0.467,0.527 -0.959,1.03 -0.492,0.502 -1.009,0.98 -0.517,0.477 -1.058,0.928 -0.54,0.451 -1.102,0.875 -0.562,0.423 -1.144,0.818 -0.583,0.395 -1.184,0.76 -0.602,0.365 -1.221,0.7 -0.619,0.335 -1.254,0.638 -0.635,0.303 -1.284,0.574 -0.65,0.271 -1.312,0.51 -0.662,0.238 -1.335,0.443 -0.673,0.205 -1.356,0.376 -0.683,0.171 -1.373,0.308 -0.69,0.136 -1.387,0.238 -0.696,0.102 -1.396,0.169 -0.701,0.067 -1.404,0.099 c -7.006,0.244 -13.491,-1.231 -19.247,-5.416 -6.417,-4.666 -10.593,-12.079 -11.63,-19.914 q -0.088,-0.69 -0.142,-1.384 -0.054,-0.693 -0.074,-1.389 -0.021,-0.695 -0.01,-1.391 0.014,-0.695 0.061,-1.389 0.046,-0.695 0.127,-1.386 0.08,-0.691 0.194,-1.377 0.114,-0.686 0.261,-1.366 0.147,-0.68 0.327,-1.352 0.18,-0.672 0.392,-1.335 0.212,-0.663 0.456,-1.314 0.244,-0.652 0.519,-1.291 0.275,-0.639 0.581,-1.264 0.306,-0.624 0.642,-1.234 0.335,-0.609 0.7,-1.201 0.365,-0.593 0.758,-1.167 0.394,-0.574 0.814,-1.128 c 5.572,-7.208 13.096,-9.956 21.757,-11.087 z"
     id="path216" />
  <path
     fill="#ffffff"
     d="m 1264.8321,361.11358 c 7.883,-0.606 16.687,1.949 23.333,6.141 q 0.809,0.51 1.592,1.059 0.783,0.55 1.538,1.138 0.754,0.587 1.479,1.212 0.725,0.624 1.417,1.283 0.693,0.66 1.353,1.353 0.659,0.693 1.283,1.418 0.624,0.725 1.211,1.48 0.588,0.754 1.137,1.538 0.549,0.783 1.059,1.592 0.509,0.809 0.978,1.643 0.469,0.834 0.896,1.69 0.427,0.856 0.811,1.731 0.384,0.877 0.724,1.77 0.341,0.894 0.636,1.804 0.295,0.91 0.545,1.833 0.25,0.924 0.454,1.858 c 2.018,9.135 0.01,19.971 -5.085,27.81 -6.734,10.368 -16.492,14.342 -28.117,16.879 -10.249,0.223 -20.133,-2.318 -28.387,-8.579 q -0.671,-0.501 -1.316,-1.034 -0.646,-0.533 -1.263,-1.098 -0.618,-0.565 -1.207,-1.161 -0.589,-0.595 -1.147,-1.219 -0.559,-0.623 -1.085,-1.274 -0.527,-0.651 -1.02,-1.328 -0.493,-0.676 -0.952,-1.377 -0.459,-0.7 -0.882,-1.422 -0.423,-0.722 -0.81,-1.465 -0.387,-0.742 -0.736,-1.503 -0.349,-0.761 -0.66,-1.539 -0.31,-0.777 -0.582,-1.569 -0.271,-0.792 -0.503,-1.597 -0.231,-0.804 -0.422,-1.619 -0.191,-0.816 -0.341,-1.639 -0.15,-0.824 -0.259,-1.654 c -1.381,-10.213 0.926,-21.306 7.252,-29.578 6.595,-8.625 16.52,-13.151 27.076,-14.577 z"
     id="path217" />
  <path
     d="m 1265.1431,369.06558 c 6.355,-0.284 13.135,1.555 18.447,5.059 6.51,4.293 11.335,10.787 12.726,18.56 q 0.132,0.745 0.227,1.496 0.095,0.751 0.152,1.505 0.057,0.755 0.077,1.512 0.02,0.756 0,1.513 -0.017,0.756 -0.073,1.511 -0.055,0.755 -0.147,1.506 -0.093,0.751 -0.223,1.497 -0.13,0.745 -0.297,1.484 -0.166,0.738 -0.37,1.467 -0.203,0.729 -0.442,1.447 -0.239,0.718 -0.513,1.423 -0.275,0.705 -0.584,1.396 -0.309,0.691 -0.652,1.365 -0.344,0.675 -0.72,1.332 -0.376,0.656 -0.784,1.294 -0.409,0.637 -0.848,1.253 c -5.045,7.04 -12.151,9.962 -20.367,11.26 -6.805,-0.05 -12.709,-0.687 -18.602,-4.446 q -0.606,-0.38 -1.192,-0.789 -0.586,-0.41 -1.151,-0.849 -0.565,-0.438 -1.107,-0.905 -0.542,-0.466 -1.059,-0.96 -0.518,-0.493 -1.011,-1.011 -0.492,-0.519 -0.958,-1.061 -0.465,-0.543 -0.903,-1.108 -0.438,-0.566 -0.847,-1.152 -0.409,-0.587 -0.788,-1.194 -0.379,-0.606 -0.726,-1.231 -0.348,-0.625 -0.664,-1.266 -0.316,-0.642 -0.6,-1.298 -0.283,-0.657 -0.533,-1.326 -0.25,-0.67 -0.466,-1.352 -0.216,-0.682 -0.398,-1.373 -0.181,-0.692 -0.328,-1.392 c -1.604,-7.447 0.08,-16.163 4.334,-22.502 5.09,-7.584 12.71,-10.988 21.388,-12.665 z"
     id="path218" />
  <path
     fill="#ffffff"
     d="m 1626.2911,571.16258 c 8.242,-0.966 17.251,2.295 23.804,7.129 q 0.763,0.56 1.498,1.158 0.735,0.597 1.439,1.23 0.704,0.633 1.376,1.3 0.672,0.666 1.311,1.366 0.638,0.699 1.241,1.429 0.604,0.729 1.17,1.488 0.566,0.759 1.095,1.545 0.528,0.786 1.017,1.596 0.488,0.811 0.937,1.645 0.448,0.835 0.854,1.69 0.407,0.855 0.77,1.729 0.364,0.874 0.684,1.765 0.321,0.891 0.596,1.797 0.276,0.906 0.507,1.824 0.231,0.918 0.416,1.847 0.185,0.928 0.324,1.865 c 1.508,10.078 -1.382,19.966 -7.498,28.063 -7.219,9.558 -16.021,13.381 -27.585,14.988 -9.496,-0.037 -18.616,-2.076 -26.15,-8.122 -7.879,-6.324 -13.422,-16.345 -14.371,-26.425 -0.945,-10.042 2.504,-20.439 9.041,-28.093 7.372,-8.631 16.472,-11.947 27.524,-12.814 z"
     id="path219" />
  <path
     fill="#ffffff"
     d="m 1504.1151,696.57058 c 4.252,-0.223 8.624,-0.344 12.858,0.144 11.889,1.368 22.595,7.875 29.913,17.291 6.048,7.783 9.323,17.91 8.111,27.743 -14.617,8.053 -28.775,15.032 -44.379,21.069 -8.306,3.945 -17.702,6.06 -26.59,8.299 q -0.74,-0.518 -1.455,-1.069 -0.716,-0.551 -1.405,-1.134 -0.689,-0.584 -1.35,-1.199 -0.661,-0.615 -1.294,-1.259 -0.632,-0.645 -1.234,-1.318 -0.601,-0.674 -1.171,-1.374 -0.57,-0.7 -1.107,-1.426 -0.537,-0.726 -1.04,-1.476 -0.503,-0.75 -0.971,-1.523 -0.467,-0.772 -0.899,-1.565 -0.431,-0.794 -0.826,-1.606 -0.394,-0.812 -0.75,-1.642 -0.357,-0.83 -0.675,-1.675 -0.317,-0.845 -0.595,-1.704 -0.279,-0.859 -0.517,-1.73 -0.238,-0.871 -0.436,-1.752 c -2.388,-10.557 -0.718,-21.813 5.191,-30.927 7.064,-10.897 18.017,-17.536 30.621,-20.167 z"
     id="path220" />
  <path
     fill="#ffffff"
     d="m 1558.5161,215.42158 c 12.329,4.863 38.663,25.645 48.407,35.526 0.898,0.911 1.483,1.341 1.505,2.675 -0.853,0.344 -1.311,0.456 -1.928,1.163 1.59,1.185 4.307,0.989 6.292,1.183 7.111,8.082 19.682,20.947 24.523,29.963 1.444,2.691 2.233,5.677 2.512,8.711 0.85,9.265 -2.689,17.732 -8.556,24.741 -7.512,8.977 -15.423,12.034 -26.873,12.982 -4.637,-0.457 -8.918,-0.876 -13.318,-2.538 -8.965,-3.387 -16.346,-10.014 -20.294,-18.78 -4.327,-9.608 -4.21,-20.609 -0.373,-30.359 4.574,-11.62 13.285,-19.116 25.165,-22.788 3.432,-1.06 7.054,-1.334 10.37,-2.751 l 0.19,-0.627 c -2.114,-1.668 -7.826,-1.913 -10.701,-2.898 -19.045,-6.529 -28.413,-18.654 -36.921,-36.203 z"
     id="path221" />
  <path
     fill="#ffffff"
     d="m 1180.7961,308.57258 c 9.034,-1.162 19.065,1.287 26.466,6.588 8.662,6.206 14.852,15.745 16.453,26.327 1.533,10.126 -1.199,20.247 -7.303,28.427 -6.819,9.139 -16.255,14.182 -27.413,15.806 -0.549,0.156 -0.678,0.204 -1.294,0.322 -7.408,1.409 -18.059,-2.287 -24.266,-6.327 -8.714,-5.671 -15.33,-14.652 -17.354,-24.919 q -0.185,-0.949 -0.324,-1.906 -0.138,-0.956 -0.23,-1.919 -0.091,-0.962 -0.135,-1.928 -0.044,-0.966 -0.04,-1.932 0,-0.967 0.055,-1.932 0.051,-0.966 0.149,-1.928 0.099,-0.961 0.244,-1.917 0.146,-0.956 0.338,-1.903 0.192,-0.947 0.431,-1.884 0.239,-0.937 0.523,-1.861 0.284,-0.924 0.614,-1.833 0.329,-0.909 0.703,-1.8 0.373,-0.892 0.791,-1.764 0.416,-0.872 0.876,-1.723 0.459,-0.851 0.96,-1.678 0.5,-0.827 1.041,-1.628 c 6.749,-9.892 17.3,-14.542 28.715,-16.688 z"
     id="path222" />
  <path
     fill="#ffffff"
     d="m 1426.8701,549.16658 c 11.668,-0.603 24.101,2.541 33.607,9.447 q 1.024,0.742 2.01,1.532 0.986,0.791 1.933,1.628 0.947,0.838 1.851,1.721 0.905,0.882 1.766,1.808 0.86,0.926 1.675,1.893 0.815,0.966 1.581,1.971 0.767,1.005 1.483,2.047 0.717,1.041 1.382,2.116 0.665,1.075 1.277,2.181 0.612,1.106 1.17,2.24 0.557,1.135 1.058,2.295 0.502,1.16 0.946,2.344 0.445,1.183 0.831,2.387 0.386,1.203 0.713,2.424 0.327,1.221 0.595,2.457 0.267,1.235 0.474,2.482 c 2.142,13.723 -0.982,26.853 -9.308,37.996 -9.042,12.102 -21.638,18.585 -36.362,20.722 -0.715,0.114 -1.422,0.22 -2.143,0.291 -11.896,1.168 -24.539,-3.196 -33.727,-10.675 -10.557,-8.595 -18.133,-21.492 -19.472,-35.116 -1.346,-13.686 2.417,-27.024 11.191,-37.663 9.099,-11.033 21.267,-17.093 35.469,-18.528 z"
     id="path223" />
  <path
     d="m 1425.6321,562.08458 c 9.622,-0.782 18.829,1.024 26.875,6.597 8.495,5.883 14.68,15.154 16.448,25.361 1.794,10.353 -0.583,20.251 -6.679,28.793 -6.127,8.587 -15,13.762 -25.313,15.488 -9.82,0.898 -18.832,-0.357 -27.253,-5.836 -8.427,-5.484 -14.872,-15.683 -16.812,-25.491 -1.905,-9.632 -0.198,-19.868 5.294,-28.062 6.841,-10.205 15.659,-14.574 27.44,-16.85 z"
     id="path224" />
  <path
     fill="#ffffff"
     d="m 1374.7991,304.62058 c 12.167,-1.075 25.115,3.029 34.773,10.344 10.845,8.214 18.237,21.233 19.986,34.702 1.742,13.417 -1.371,26.99 -9.705,37.756 -9.055,11.698 -21.272,18.074 -35.753,19.982 -12.042,0.727 -23.431,-1.629 -33.357,-8.753 -10.671,-7.658 -18.73,-19.109 -20.856,-32.187 -2.327,-14.312 -0.266,-29.273 8.423,-41.144 9.3,-12.706 21.297,-18.35 36.489,-20.7 z"
     id="path225" />
  <path
     d="m 1376.8041,318.15858 c 8.845,-0.223 16.446,1.44 23.843,6.413 q 0.783,0.524 1.538,1.087 0.756,0.562 1.483,1.162 0.727,0.599 1.423,1.234 0.696,0.634 1.36,1.303 0.664,0.668 1.294,1.369 0.63,0.701 1.224,1.432 0.594,0.731 1.152,1.49 0.557,0.76 1.076,1.546 0.519,0.786 0.998,1.598 0.479,0.811 0.917,1.645 0.439,0.834 0.835,1.688 0.396,0.855 0.75,1.728 0.353,0.873 0.663,1.763 0.31,0.89 0.575,1.794 0.265,0.904 0.485,1.82 0.22,0.916 0.394,1.842 c 1.862,10.032 -0.805,20.898 -6.627,29.207 -6.531,9.319 -15.918,13.734 -26.866,15.648 -10.6,0.519 -19.014,-1.045 -27.563,-7.721 -8.297,-6.479 -13.222,-15.329 -14.392,-25.761 -1.186,-10.565 1.46,-20.705 8.184,-29.004 7.3,-9.01 16.051,-12.183 27.254,-13.283 z"
     id="path226" />
  <path
     fill="#ffffff"
     d="m 1295.7021,600.08158 c 5.774,-0.555 11.715,-0.111 17.234,1.723 13.218,4.393 24.297,15.734 30.347,28.049 4.675,9.517 6.613,20.759 3.084,30.992 -2.325,6.744 -7.084,12.312 -13.611,15.303 -9.378,4.297 -19.627,2.318 -28.89,-1.077 8.184,6.643 14.911,13.987 17.753,24.415 2.39,8.766 1.028,18.905 -3.571,26.743 -5.479,9.338 -13.893,14.472 -24.176,17.105 -4.786,0.893 -9.998,0.737 -14.77,-0.234 -9.726,-1.978 -19.018,-8.316 -24.37,-16.683 -4.905,-7.668 -5.857,-17.92 -3.895,-26.695 2.005,-8.964 7.501,-17.178 15.342,-22.051 10.908,-6.779 22.379,-7.026 34.535,-4.126 -13.184,-9.435 -24.5,-21.854 -27.645,-38.265 -1.6,-8.345 -0.825,-16.286 4.083,-23.473 4.783,-7.004 10.3,-10.132 18.55,-11.726 z"
     id="path227" />
  <path
     d="m 1283.4731,681.10358 c 6.282,-0.459 11.976,0.478 17.398,3.847 6.045,3.755 10.131,9.897 11.689,16.784 1.568,6.929 0.515,14.889 -3.431,20.87 -4.779,7.243 -11.882,10.198 -20.04,11.762 -6.546,0.352 -11.914,-0.34 -17.528,-4.004 q -0.58,-0.377 -1.14,-0.784 -0.56,-0.406 -1.098,-0.84 -0.539,-0.434 -1.055,-0.895 -0.516,-0.46 -1.008,-0.947 -0.493,-0.486 -0.96,-0.996 -0.467,-0.51 -0.907,-1.044 -0.441,-0.533 -0.854,-1.088 -0.413,-0.554 -0.798,-1.13 -0.385,-0.574 -0.74,-1.168 -0.355,-0.594 -0.68,-1.205 -0.325,-0.61 -0.618,-1.237 -0.294,-0.626 -0.555,-1.267 -0.262,-0.64 -0.49,-1.293 -0.229,-0.653 -0.425,-1.316 -0.196,-0.664 -0.357,-1.337 -0.162,-0.672 -0.29,-1.352 c -1.298,-7.155 0.738,-14.343 4.927,-20.202 4.555,-6.371 11.388,-9.87 18.96,-11.158 z"
     id="path228" />
  <path
     d="m 1296.5591,605.06258 c 8.174,-0.465 16.009,1.436 22.899,5.865 10.765,6.918 19.84,18.741 22.479,31.392 1.446,6.933 0.915,15.277 -3.154,21.244 -3.787,5.553 -9.276,7.468 -15.528,8.792 -8.317,-0.77 -13.193,-0.857 -20.619,-5.249 -10.678,-6.316 -20.868,-18.681 -23.934,-30.825 -1.787,-7.075 -1.041,-15.748 2.938,-21.979 3.557,-5.571 8.783,-7.758 14.919,-9.24 z"
     id="path229" />
  <path
     fill="#ffffff"
     d="m 1288.4521,457.62658 c 11.809,-1.49 26.065,2.129 35.745,9.022 11.123,7.92 19.532,21.027 21.749,34.512 2.393,14.559 -0.519,27.99 -9.244,39.921 -9.319,12.745 -22.253,19.005 -37.601,21.329 -12.546,0.897 -25.536,-2.284 -35.828,-9.675 -11.444,-8.219 -19.363,-21.478 -21.517,-35.363 -2.252,-14.524 1.488,-27.645 10.225,-39.359 8.765,-11.75 22.201,-18.266 36.471,-20.387 z"
     id="path230" />
  <path
     d="m 1293.3231,470.19258 c 8.954,-0.804 19.281,3.795 26.152,9.237 8.565,6.782 13.52,16.404 14.658,27.23 1.091,10.368 -1.894,20.215 -8.473,28.289 -7.665,9.406 -18.048,13.62 -29.924,14.768 -10.076,-0.02 -18.623,-2.447 -26.644,-8.752 -8.244,-6.48 -14.056,-16.605 -15.209,-27.06 -1.152,-10.44 1.643,-21.298 8.317,-29.475 8.378,-10.265 18.429,-13.042 31.123,-14.237 z"
     id="path231" />
  <path
     fill="#ffffff"
     d="m 1511.5001,392.60258 q 1.251,-0.101 2.505,-0.145 1.254,-0.043 2.508,-0.03 1.255,0.014 2.508,0.085 1.253,0.071 2.501,0.199 1.248,0.129 2.489,0.314 1.241,0.185 2.472,0.427 1.232,0.241 2.451,0.539 1.219,0.298 2.423,0.651 1.204,0.353 2.39,0.761 1.187,0.408 2.354,0.87 1.166,0.462 2.311,0.976 1.144,0.515 2.264,1.081 1.12,0.567 2.212,1.183 1.093,0.617 2.156,1.284 1.064,0.666 2.095,1.38 1.032,0.714 2.03,1.475 1.08,0.831 2.119,1.714 1.038,0.882 2.032,1.815 0.993,0.933 1.94,1.913 0.947,0.98 1.845,2.006 0.897,1.025 1.743,2.093 0.847,1.069 1.64,2.177 0.792,1.108 1.53,2.254 0.738,1.146 1.418,2.327 0.681,1.181 1.302,2.394 0.622,1.212 1.184,2.454 0.561,1.242 1.062,2.51 0.5,1.267 0.937,2.558 0.437,1.291 0.811,2.601 0.373,1.311 0.682,2.639 0.309,1.327 0.552,2.668 0.244,1.341 0.421,2.692 c 1.742,13.573 -2.766,28.442 -11.16,39.186 -9.47,12.122 -22.728,17.443 -37.627,19.243 -12.307,1.218 -24.166,-1.827 -34.461,-8.685 -12.07,-8.041 -19.848,-20.152 -22.579,-34.329 -2.576,-13.374 0.567,-28.522 8.328,-39.736 9.345,-13.504 22.675,-20.715 38.612,-23.544 z"
     id="path232" />
  <path
     d="m 1516.8801,405.67358 c 9.683,0.335 18.954,3.241 26.416,9.523 8.167,6.875 13.831,17.458 14.629,28.145 0.781,10.437 -3.143,20.603 -9.978,28.416 -8.071,9.224 -18.179,13.493 -30.249,14.242 l -0.298,-0.197 c -8.808,0.358 -18.662,-3.221 -25.491,-8.783 -8.837,-7.198 -14.232,-17.079 -15.237,-28.426 -0.897,-10.137 2.484,-21 9.108,-28.765 8.275,-9.702 18.749,-13.272 31.1,-14.155 z"
     id="path233" />
  <rect
     style="fill:#000000"
     id="rect681"
     width="1076.2958"
     height="971.54681"
     x="-421.61465"
     y="-99.511536" />
</svg>
